<svg width="100%" height="100%" viewBox="0 0 68 68" fill="none" xmlns="http://www.w3.org/2000/svg">
<path d="M42.5 14.167H56.6667C58.2315 14.167 59.5 15.4355 59.5 17.0003V45.3337C59.5 46.8985 58.2315 48.167 56.6667 48.167H44.2157C41.3737 48.167 38.7198 49.5873 37.1433 51.952L34 56.667V22.667C34 17.9726 37.8056 14.167 42.5 14.167Z" stroke="white" stroke-width="4" stroke-linecap="round" stroke-linejoin="round"/>
<path d="M25.5 14.167H11.3333C9.76853 14.167 8.5 15.4355 8.5 17.0003V45.3337C8.5 46.8985 9.76853 48.167 11.3333 48.167H23.7843C26.6263 48.167 29.2802 49.5873 30.8567 51.952L34 56.667V22.667C34 17.9726 30.1944 14.167 25.5 14.167Z" stroke="white" stroke-width="4" stroke-linecap="round" stroke-linejoin="round"/>
</svg>
