<svg width="100%" height="100%" viewBox="0 0 53 53" fill="none" xmlns="http://www.w3.org/2000/svg">
<mask id="mask0_1602_227" style="mask-type:luminance" maskUnits="userSpaceOnUse" x="0" y="0" width="53" height="53">
<path d="M53 0H0V53H53V0Z" fill="white"/>
</mask>
<g mask="url(#mask0_1602_227)">
<path d="M33.9491 3.81676C33.9491 2.95486 33.9531 2.09296 33.9491 1.23302C33.9452 0.490884 33.537 0.00594241 32.9227 5.24342e-05C32.3085 -0.00583755 31.8846 0.484994 31.8826 1.21928C31.8787 2.94308 31.8787 4.66492 31.8826 6.38872C31.8846 7.13478 32.2986 7.59813 32.9365 7.58635C33.5527 7.57457 33.9452 7.123 33.9511 6.40246C33.957 5.54056 33.9511 4.67866 33.9511 3.81872L33.9491 3.81676ZM23.1631 2.92934C23.2416 3.06481 23.3476 3.36519 23.5497 3.57134C24.741 4.79253 25.9499 5.99409 27.1608 7.19368C27.6632 7.6904 28.2892 7.71593 28.719 7.28399C29.1429 6.85795 29.1095 6.23165 28.615 5.72511C27.9281 5.02224 27.2294 4.33311 26.5347 3.64006C25.9989 3.10407 25.4671 2.56612 24.9215 2.03799C24.5957 1.72189 24.2032 1.63747 23.7793 1.82398C23.377 2.00068 23.1788 2.31874 23.1611 2.92737L23.1631 2.92934ZM42.6628 2.93326C42.649 2.32463 42.4508 2.00265 42.0485 1.82791C41.5794 1.62372 41.1771 1.75919 40.8298 2.10866C39.6248 3.31415 38.4158 4.51767 37.2148 5.72708C36.7163 6.23165 36.6829 6.85206 37.1068 7.28399C37.5347 7.71789 38.1627 7.69433 38.6651 7.19761C39.876 5.99801 41.0849 4.79646 42.2761 3.57527C42.4783 3.36716 42.5843 3.06677 42.6628 2.93326Z" fill="white"/>
<path d="M0 21.5221C0.074576 21.2413 0.141302 20.9566 0.223728 20.6778C0.855662 18.5378 2.8751 17.0005 5.11631 16.9632C6.00926 16.9475 6.90417 16.9613 7.86777 16.9613C7.86777 16.5156 7.86188 16.1092 7.86777 15.7008C7.90113 13.6177 9.53592 11.9882 11.5926 11.9882C13.6513 11.9882 15.2822 13.6138 15.3175 15.6989C15.3234 16.0935 15.3175 16.4881 15.3175 16.9318C15.5118 16.9416 15.6786 16.9554 15.8435 16.9554C17.4822 16.9554 19.1209 16.9436 20.7576 16.9652C21.1227 16.9711 21.3091 16.8395 21.4838 16.5392C22.5494 14.7074 23.6445 12.8913 24.7043 11.0575C25.0065 10.5333 25.3971 10.3193 26.0035 10.3213C30.6076 10.337 35.2117 10.339 39.8157 10.3213C40.4477 10.3193 40.8382 10.5589 41.1463 11.0949C42.1963 12.9149 43.2875 14.7133 44.3394 16.5333C44.5297 16.8631 44.7417 16.9672 45.1146 16.9691C46.3196 16.9731 47.5403 16.9063 48.7256 17.0771C51.0983 17.4187 52.9078 19.5686 52.9843 21.9795C53.0118 22.8748 52.9941 23.774 52.9941 24.6713C52.9941 32.2438 52.9941 39.8183 52.9941 47.3909C52.9941 50.3614 51.3809 52.3306 48.4666 52.9255C48.4195 52.9353 48.3802 52.9746 48.3351 53.0001H4.65708C4.56287 52.9667 4.47064 52.9216 4.37251 52.9019C2.34129 52.4975 0.977338 51.3156 0.270829 49.3738C0.16289 49.0715 0.0902762 48.7554 0 48.4452C0 39.4708 0 30.4964 0 21.5221ZM26.5216 19.0287C19.5193 19.0287 12.517 19.0287 5.51274 19.0287C3.37358 19.0287 2.07047 20.3362 2.07047 22.4802C2.07047 30.7968 2.07047 39.1135 2.07047 47.4301C2.07047 49.5957 3.38143 50.919 5.54414 50.919C19.5154 50.9209 33.4866 50.9209 47.4578 50.919C49.6166 50.919 50.9256 49.5937 50.9276 47.4242C50.9276 39.1253 50.9276 30.8243 50.9276 22.5253C50.9276 20.3107 49.6421 19.0267 47.4284 19.0267C40.4595 19.0267 33.4925 19.0267 26.5236 19.0267L26.5216 19.0287ZM23.6583 16.924H42.1492C42.055 16.7433 41.9902 16.6079 41.9156 16.4783C41.1895 15.2453 40.4536 14.0202 39.7431 12.7774C39.5744 12.481 39.3781 12.3926 39.0464 12.3946C35.51 12.4064 31.9755 12.4005 28.439 12.4044C27.7344 12.4044 26.9043 12.2041 26.3607 12.5065C25.8386 12.7971 25.609 13.6197 25.2577 14.2107C24.7318 15.0941 24.2137 15.9816 23.6583 16.9259V16.924ZM13.2451 16.9358C13.2451 16.4528 13.2667 16.0208 13.2412 15.5928C13.1901 14.7643 12.5091 14.1007 11.7006 14.0595C10.8508 14.0163 10.0737 14.6014 9.96767 15.4338C9.90684 15.9187 9.9559 16.4194 9.9559 16.9338H13.2451V16.9358Z" fill="white"/>
<path d="M33.9494 3.81677C33.9494 4.67867 33.9533 5.54057 33.9494 6.40051C33.9454 7.12105 33.551 7.57261 32.9347 7.58439C32.2989 7.59617 31.8848 7.13283 31.8809 6.38676C31.8769 4.66296 31.8769 2.94113 31.8809 1.21733C31.8809 0.483041 32.3087 -0.00779067 32.921 -0.00190069C33.5372 0.00398929 33.9435 0.486968 33.9474 1.23107C33.9513 2.09297 33.9474 2.95487 33.9474 3.81481L33.9494 3.81677Z" fill="white"/>
<path d="M23.1641 2.92889C23.1798 2.32026 23.38 2.0022 23.7823 1.8255C24.2062 1.63898 24.5968 1.72341 24.9245 2.0395C25.4701 2.56567 26.0019 3.10559 26.5377 3.64158C27.2324 4.33463 27.9311 5.02376 28.618 5.72663C29.1125 6.23317 29.1459 6.85947 28.722 7.28551C28.2922 7.71744 27.6662 7.69192 27.1637 7.1952C25.9529 5.99561 24.744 4.79209 23.5527 3.57286C23.3506 3.36475 23.2446 3.06436 23.1661 2.93085L23.1641 2.92889Z" fill="white"/>
<path d="M42.6653 2.93356C42.5868 3.06707 42.4808 3.36942 42.2787 3.57557C41.0874 4.79676 39.8785 5.99832 38.6676 7.19791C38.1652 7.69463 37.5372 7.71819 37.1094 7.2843C36.6855 6.85236 36.7188 6.22999 37.2173 5.72738C38.4164 4.51601 39.6273 3.31445 40.8323 2.10897C41.1816 1.7595 41.582 1.62403 42.051 1.82821C42.4533 2.00295 42.6516 2.32493 42.6653 2.93356Z" fill="white"/>
<path d="M32.9073 21.9342C40.3845 21.9284 46.331 28.1953 45.9444 35.6697C45.6107 42.1094 40.52 47.379 34.0848 47.9503C26.1601 48.6532 19.4503 42.1722 19.8938 34.2345C19.9703 32.868 20.251 31.5369 20.7553 30.2607C21.0733 29.4538 21.5698 29.1514 22.19 29.387C22.8101 29.6226 22.975 30.1861 22.6924 30.9852C21.2519 35.0395 21.7936 38.8189 24.6079 42.076C27.6066 45.5491 31.5003 46.7487 35.9101 45.4922C40.3179 44.2357 42.9928 41.1631 43.7445 36.6415C45.1163 28.4093 36.8657 21.734 29.0686 24.6888C28.9391 24.7379 28.8135 24.7929 28.682 24.8341C28.0815 25.0226 27.5261 24.7752 27.3278 24.2333C27.1277 23.6816 27.377 23.1358 27.9717 22.8943C29.3886 22.3191 30.8604 21.9853 32.3912 21.9362C32.5639 21.9303 32.7366 21.9362 32.9093 21.9362L32.9073 21.9342Z" fill="white"/>
<path d="M32.9095 26.4854C37.596 26.4834 41.3994 30.2785 41.4014 34.961C41.4033 39.6357 37.5882 43.4603 32.9193 43.4622C28.2505 43.4642 24.4275 39.6416 24.4275 34.9708C24.4275 30.2864 28.225 26.4873 32.9095 26.4854ZM32.939 28.5567C29.3966 28.5508 26.5058 31.4172 26.498 34.9434C26.4901 38.4734 29.3731 41.3811 32.8919 41.3909C36.4166 41.4007 39.325 38.5127 39.3329 34.9905C39.3407 31.4506 36.4715 28.5606 32.9409 28.5547L32.939 28.5567Z" fill="white"/>
<path d="M11.6455 25.4488C12.4874 25.4488 13.3313 25.4429 14.1732 25.4488C14.8522 25.4546 15.2997 25.8552 15.3134 26.4501C15.3272 27.0548 14.8601 27.5083 14.1693 27.5142C12.4501 27.526 10.729 27.526 9.00975 27.5142C8.3209 27.5103 7.85382 27.0508 7.86952 26.4461C7.88522 25.8532 8.33464 25.4546 9.01367 25.4488C9.89092 25.4409 10.7682 25.4488 11.6455 25.4488Z" fill="white"/>
<path d="M25.4559 26.483C25.452 27.0347 24.979 27.5079 24.4295 27.5118C23.8604 27.5158 23.3776 27.0171 23.3952 26.4438C23.4129 25.8823 23.8761 25.4444 24.4452 25.4523C25.0084 25.4621 25.4618 25.9235 25.4579 26.483H25.4559Z" fill="white"/>
<path d="M36.9878 34.7858C37.0133 35.4671 36.6561 35.9343 36.0615 35.9972C35.4884 36.0561 35.0351 35.6418 34.9389 34.9703C34.7505 33.6471 34.1931 33.0934 32.8881 32.9324C32.2502 32.8539 31.8479 32.42 31.8852 31.8467C31.9225 31.2577 32.4151 30.8532 33.0647 30.8748C35.1842 30.9514 36.9093 32.6694 36.9878 34.7839V34.7858Z" fill="white"/>
</g>
</svg>
