<svg width="100%" height="100%" viewBox="0 0 62 62" fill="none" xmlns="http://www.w3.org/2000/svg">
<mask id="mask0_1602_241" style="mask-type:luminance" maskUnits="userSpaceOnUse" x="0" y="0" width="62" height="62">
<path d="M62 0H0V61.1249H62V0Z" fill="white"/>
</mask>
<g mask="url(#mask0_1602_241)">
<path d="M62 43.6665C61.5293 44.6677 60.7238 44.9654 59.6498 44.9589C53.7571 44.9281 47.8661 44.9443 41.9734 44.9427C41.7113 44.9427 41.4461 44.9427 41.1905 44.899C40.7344 44.8181 40.4788 44.5108 40.4626 44.0611C40.4448 43.5791 40.7004 43.2508 41.1792 43.1521C41.4331 43.1003 41.7 43.1036 41.9604 43.1036C47.7722 43.102 53.584 43.102 59.3942 43.102H60.1415V41.6219H35.3884V43.1117C36.1681 43.1117 36.9283 43.0987 37.6869 43.1165C38.1334 43.1262 38.5232 43.3575 38.5604 43.7991C38.5863 44.1081 38.4003 44.4704 38.2142 44.7437C38.1188 44.8829 37.8163 44.9281 37.6061 44.9346C36.8199 44.954 36.0306 44.9702 35.2461 44.9314C34.185 44.878 33.5541 44.197 33.525 43.1311C33.5105 42.6264 33.5137 42.1217 33.5234 41.6171C33.5444 40.4492 34.1753 39.8006 35.3528 39.731C35.5728 39.7181 35.7944 39.7294 36.1001 39.7294C36.1001 39.1131 36.0969 38.5357 36.1001 37.9582C36.1115 36.6804 36.7682 35.9605 38.0476 36.0527C39.1928 36.1352 39.9838 35.7584 40.7699 34.9237C42.7757 32.795 44.8898 30.7683 46.9521 28.693C47.0799 28.5652 47.2142 28.3662 47.2142 28.1996C47.2239 24.9921 47.2142 21.7829 47.2061 18.5753C47.2061 18.5591 47.1818 18.5446 47.1382 18.4944H37.7775C37.7775 18.6805 37.7775 18.8729 37.7775 19.0654C37.7775 20.3562 37.7888 21.6486 37.7743 22.9394C37.7565 24.3693 36.752 25.3689 35.3189 25.3754C33.0381 25.3867 30.759 25.3867 28.4783 25.3754C27.0387 25.3689 26.0455 24.3742 26.0342 22.9378C26.0229 21.4691 26.031 20.002 26.031 18.4961H20.9697C21.3304 30.503 21.6912 42.4905 22.0551 54.5589C22.6681 54.5589 23.2456 54.5541 23.8231 54.5589C25.7075 54.5783 27.1034 55.9646 27.1293 57.849C27.139 58.5947 27.1406 59.342 27.1293 60.0893C27.118 60.7654 26.7961 61.1083 26.1297 61.1099C22.5371 61.1196 18.9462 61.118 15.3537 61.1099C14.7131 61.1099 14.3006 60.7153 14.3217 60.175C14.3411 59.6428 14.7568 59.2918 15.4135 59.2902C18.4399 59.2854 21.4663 59.287 24.4943 59.287C24.7353 59.287 24.9764 59.287 25.2643 59.287C25.2643 58.6691 25.3355 58.0641 25.2465 57.485C25.1349 56.7652 24.517 56.3803 23.6629 56.3787C20.6559 56.3754 17.6489 56.3787 14.6436 56.3787C13.8963 56.3787 13.1506 56.3689 12.4033 56.3819C11.4586 56.3964 10.9038 56.9383 10.8666 57.8797C10.8488 58.3213 10.8634 58.7629 10.8634 59.2934C11.1335 59.2934 11.3681 59.2757 11.5994 59.2967C12.1251 59.3436 12.4761 59.7108 12.4825 60.1944C12.489 60.7039 12.1235 61.0841 11.5622 61.1067C11.0381 61.1277 10.5124 61.1261 9.98831 61.1083C9.38497 61.0873 9.05014 60.7767 9.0372 60.1637C9.01779 59.2562 8.99514 58.344 9.07278 57.443C9.21189 55.8271 10.5819 54.601 12.2043 54.5605C12.4842 54.5541 12.7656 54.5605 13.1312 54.5605C13.4919 42.5326 13.8526 30.5434 14.2149 18.5074H8.46298C8.43386 18.64 8.39827 18.7921 8.36916 18.9441C8.17829 19.9001 7.42937 20.6425 6.454 20.6749C4.96264 20.725 3.46804 20.7315 1.97667 20.6749C0.870279 20.6312 0.0307803 19.7092 0.01784 18.5899C-0.00642294 16.3706 -0.00480541 14.1497 0.01784 11.9305C0.0291628 10.7691 0.904248 9.84388 2.07858 9.80021C3.48906 9.74683 4.9044 9.75654 6.31489 9.79536C7.35497 9.82447 8.08286 10.5022 8.37886 11.5358C8.42254 11.6911 8.63443 11.9095 8.77031 11.9111C10.5658 11.937 12.3612 11.9289 14.1583 11.9273C14.278 11.9273 14.3961 11.9095 14.5756 11.8949C14.6792 10.7707 14.7891 9.64978 14.8862 8.52883C15.1013 6.05724 15.3084 3.58565 15.5219 1.11406C15.5866 0.361914 15.902 0.150018 16.6428 0.0513479C18.6761 -0.222015 20.4165 0.651452 22.2088 1.36316C30.8561 4.80204 39.5002 8.24738 48.1621 11.6474C48.843 11.9143 49.6534 11.8884 50.4072 11.9143C50.9378 11.9337 51.3179 12.0842 51.643 12.5128C52.7284 13.9427 53.838 15.3548 54.9476 16.7653C55.2291 17.1228 55.4038 17.4964 55.1919 17.9332C54.98 18.3699 54.574 18.4637 54.1211 18.4621C52.6685 18.454 51.216 18.4589 49.7618 18.4589C49.5451 18.4589 49.3299 18.4589 49.0517 18.4589C49.0517 18.7193 49.0517 18.915 49.0517 19.1123C49.0517 22.0789 49.042 25.0454 49.0679 28.0104C49.0711 28.3096 49.2199 28.68 49.4286 28.8919C51.6495 31.15 53.9027 33.3773 56.1316 35.6306C56.4277 35.9298 56.722 36.0722 57.1377 36.0366C57.4985 36.0058 57.864 36.022 58.2263 36.0333C59.2098 36.0641 59.8876 36.7224 59.928 37.714C59.9539 38.3561 59.9328 39.0015 59.9328 39.7229C60.9454 39.6582 61.5892 40.1597 62.0017 41.0024V43.6665H62ZM8.44195 16.5857H52.4809C51.829 15.7462 51.2192 14.9973 50.6531 14.2161C50.4023 13.8699 50.1306 13.7454 49.7003 13.747C43.5068 13.7615 37.3117 13.7567 31.1165 13.7567C30.9143 13.7567 30.7105 13.7696 30.5116 13.7421C30.0053 13.6742 29.6381 13.2601 29.6866 12.7894C29.74 12.2863 30.0263 11.9823 30.5471 11.9386C30.7477 11.9224 30.9499 11.9305 31.1521 11.9305C35.0665 11.9305 38.981 11.9305 42.8954 11.9305H43.5197C43.5262 11.8884 43.5327 11.8464 43.5392 11.8043C35.6391 8.66794 27.7391 5.53154 19.7647 2.36442C20.0494 5.61242 20.326 8.75529 20.6058 11.9305C20.9018 11.9305 21.1218 11.9305 21.3418 11.9305C23.1777 11.9305 25.0136 11.9256 26.8495 11.9353C27.4544 11.9386 27.8507 12.3155 27.8491 12.8363C27.8491 13.3572 27.4544 13.7227 26.8511 13.7535C26.6699 13.7632 26.4888 13.7567 26.306 13.7567C20.5961 13.7567 14.8862 13.7567 9.17631 13.7567C8.94176 13.7567 8.7056 13.7567 8.44195 13.7567V16.5874V16.5857ZM35.9497 18.5041H27.8556C27.8556 20.0165 27.8523 21.4853 27.8572 22.954C27.8572 23.347 28.0917 23.5508 28.4686 23.5525C30.7461 23.5589 33.0236 23.5573 35.3011 23.5541C35.6796 23.5541 35.9384 23.3632 35.9432 22.9799C35.9594 21.495 35.9497 20.0084 35.9497 18.5041ZM58.0759 37.8984H37.9651V39.6793H58.0759V37.8984ZM1.83109 15.2141C1.83109 16.2428 1.83918 17.2716 1.82624 18.3003C1.82139 18.7112 1.98799 18.8843 2.40046 18.8794C3.59097 18.8681 4.78147 18.8649 5.97198 18.881C6.40871 18.8875 6.58664 18.7274 6.58502 18.2809C6.57208 16.2639 6.5737 14.2452 6.58502 12.2281C6.58826 11.7962 6.43297 11.6005 5.98653 11.6054C4.81706 11.6183 3.64596 11.6183 2.47649 11.6054C2.01873 11.6005 1.81654 11.7687 1.82624 12.2459C1.84727 13.2342 1.83271 14.2225 1.83271 15.2108L1.83109 15.2141ZM20.0186 47.6925C19.9426 45.098 19.8698 42.6555 19.797 40.2147L19.666 40.1775C18.4512 41.6931 17.2381 43.2087 15.9877 44.7696C17.3141 45.7304 18.5952 46.6605 20.0186 47.6925ZM18.7634 11.8933C18.4723 8.56118 18.1843 5.2598 17.8932 1.92607H17.2882C17.0003 5.24362 16.7124 8.54662 16.4212 11.8933H18.7634ZM15.1984 46.4599C15.1256 49.0205 15.0577 51.4193 14.9897 53.8181C15.0334 53.8294 15.0787 53.8407 15.1224 53.8521C16.3711 52.2911 17.6198 50.7302 18.8944 49.137C17.67 48.2506 16.4989 47.403 15.1968 46.4599H15.1984ZM42.4263 36.001H47.1721V31.2551C45.6015 32.8258 44.0115 34.4158 42.4263 36.001ZM49.0938 31.3393V35.988H53.7474C52.193 34.4352 50.6385 32.8808 49.0938 31.3393ZM18.8944 38.2105C17.7703 37.3969 16.6897 36.6173 15.5235 35.7745C15.4572 38.0973 15.3941 40.2907 15.3326 42.4841C15.3763 42.4905 15.42 42.4954 15.4637 42.5018C16.5943 41.0881 17.725 39.676 18.8961 38.2122L18.8944 38.2105ZM19.4848 29.835C19.4379 29.8236 19.3926 29.8123 19.3457 29.801C18.3332 31.2002 17.319 32.6009 16.2724 34.047C17.3853 34.8558 18.4674 35.6403 19.6773 36.5186C19.611 34.1861 19.5479 32.0105 19.4865 29.8333L19.4848 29.835ZM15.7791 31.611C16.7124 30.3202 17.6376 29.0391 18.5839 27.7305C17.6667 27.069 16.8094 26.4478 15.7791 25.7038V31.611ZM19.2341 25.9432V20.6458C19.1775 20.6377 19.1209 20.6312 19.0643 20.6231C18.2248 21.736 17.3869 22.8488 16.528 23.9876C17.4856 24.6799 18.3752 25.322 19.2341 25.9416V25.9432ZM20.1529 50.7351C20.0995 50.7205 20.0461 50.7076 19.9944 50.693C18.9899 51.9499 17.9838 53.2083 16.9405 54.5136H20.1545V50.7351H20.1529ZM16.0395 18.4912V21.605C16.8434 20.5341 17.581 19.5507 18.3768 18.4912H16.0395Z" fill="white"/>
</g>
</svg>
