<svg width="100%" height="100%" viewBox="0 0 60 60" fill="none" xmlns="http://www.w3.org/2000/svg">
<mask id="mask0_1602_203" style="mask-type:luminance" maskUnits="userSpaceOnUse" x="0" y="0" width="60" height="61">
<path d="M60 0H0V60.0047H60V0Z" fill="white"/>
</mask>
<g mask="url(#mask0_1602_203)">
<path d="M59.9996 59.4102C59.7147 59.8736 59.303 60.0051 58.7645 60.0051C39.5863 59.9941 20.4066 59.9957 1.22844 59.9957C1.09224 59.9957 0.954489 60.0051 0.818296 59.9894C0.322053 59.9315 -0.0317353 59.5527 0.00113882 59.0893C0.0371439 58.5931 0.32675 58.2972 0.818296 58.2518C1.18304 58.2174 1.55405 58.2456 2.00333 58.2456C2.00333 57.9591 2.00333 57.7133 2.00333 57.4675C2.00333 47.646 2.00333 37.8229 2.00333 28.0013C2.00333 27.8652 2.00333 27.7274 2.00333 27.5912C2.00802 26.4437 2.49644 26.0931 3.55311 26.497C4.73658 26.9494 5.91535 27.4127 7.09725 27.8698C7.27415 27.9387 7.4573 27.9904 7.7109 28.0734C7.7109 26.7427 7.7109 25.4794 7.7109 24.2161C7.7109 23.6886 7.70464 23.161 7.71247 22.635C7.72343 21.9932 8.05843 21.6081 8.58598 21.6144C9.10414 21.6191 9.4595 22.0167 9.46419 22.6491C9.47358 24.4462 9.49863 26.2434 9.4501 28.0374C9.43445 28.6291 9.62543 28.867 10.1655 29.0737C15.3189 31.043 20.4598 33.0452 25.6023 35.0427C25.834 35.1335 26.1612 35.2274 26.2394 35.409C26.3725 35.7111 26.4539 36.126 26.3506 36.4187C26.1972 36.8554 25.751 36.9572 25.3143 36.7975C24.436 36.4766 23.5657 36.1322 22.6922 35.7956C16.5838 33.4318 10.4771 31.0665 4.3687 28.7011C4.19024 28.6322 4.00865 28.5743 3.78792 28.496V58.197H10.1014C10.1014 57.8667 10.1014 57.5427 10.1014 57.2171C10.1014 55.9287 10.092 54.6388 10.106 53.3504C10.1139 52.6507 10.4238 52.3032 11.0907 52.3C14.9182 52.2875 18.7473 52.2875 22.5747 52.3C23.2588 52.3016 23.5578 52.635 23.5625 53.3317C23.5719 54.7374 23.5657 56.1432 23.5657 57.5489C23.5657 57.7587 23.5657 57.9685 23.5657 58.208H29.9088C29.9088 57.9857 29.9088 57.7618 29.9088 57.538C29.9088 51.4453 29.9025 45.3526 29.9213 39.2615C29.9229 38.7543 29.8102 38.4553 29.2967 38.3395C29.0729 38.2894 28.8427 38.1939 28.6565 38.0624C28.3027 37.8135 28.1618 37.4597 28.3402 37.0386C28.5218 36.605 28.8741 36.3749 29.3218 36.5095C29.9542 36.6989 30.5976 36.9102 31.1659 37.2358C31.421 37.3814 31.6214 37.8182 31.6433 38.136C31.7059 39.0658 31.6652 40.002 31.6652 40.9772H40.1875C40.3017 39.6967 40.4207 38.4021 40.5318 37.1075C40.9545 32.1482 41.3756 27.1889 41.7967 22.2296C41.8437 21.6848 41.8781 21.1385 41.9407 20.5968C42.0284 19.8266 42.5121 19.321 43.2808 19.3069C44.8822 19.2756 46.4836 19.2756 48.0835 19.3054C48.8647 19.3194 49.3828 19.8564 49.4501 20.6422C49.8086 24.7844 50.1561 28.9265 50.5084 33.0687C50.8809 37.4441 51.2566 41.8194 51.6308 46.1948C51.7263 47.3219 51.8202 48.4491 51.922 49.6654C52.282 49.6654 52.6248 49.6654 52.9677 49.6654C53.7488 49.6654 54.53 49.656 55.3111 49.6685C56.9204 49.6936 57.9708 50.7518 57.9833 52.372C57.9958 54.0909 57.9865 55.8082 57.9865 57.527C57.9865 57.7384 57.9865 57.9513 57.9865 58.197C58.6956 58.3473 59.5535 57.9716 59.9965 58.8263V59.4118L59.9996 59.4102ZM31.695 58.1908H56.2316C56.2316 56.3107 56.2316 54.4775 56.2316 52.646C56.2316 51.6394 56.0109 51.4218 54.9886 51.4218C47.4354 51.4218 39.8822 51.4218 32.329 51.4218C32.1239 51.4218 31.9173 51.4422 31.695 51.4531V58.1908ZM41.23 49.6169H50.1561C49.9886 47.6695 49.8258 45.7706 49.6599 43.8216C48.957 43.8216 48.298 43.8279 47.6374 43.8201C46.9658 43.8122 46.5635 43.4631 46.5791 42.9168C46.5948 42.3924 46.9783 42.0746 47.628 42.0668C48.2291 42.0605 48.8287 42.0668 49.5081 42.0668C49.3421 40.0865 49.1809 38.172 49.0196 36.2528H42.3634C42.2006 38.1923 42.0409 40.1037 41.875 42.0668C42.5528 42.0668 43.1555 42.0605 43.7566 42.0668C44.4094 42.0746 44.7836 42.3877 44.7945 42.9215C44.8071 43.4788 44.4188 43.8138 43.7394 43.8216C43.0804 43.8279 42.4213 43.8216 41.7247 43.8216C41.5572 45.7753 41.3944 47.6742 41.2285 49.6169H41.23ZM11.9079 54.0831V58.208H21.7764V54.0831H11.9079ZM43.0146 28.6494C42.8487 30.5812 42.6859 32.4894 42.52 34.4306H48.8678C48.7019 32.4879 48.5375 30.5796 48.3731 28.6494H43.0162H43.0146ZM47.7297 21.043C46.4241 21.043 45.2172 21.0508 44.0102 21.0383C43.6345 21.0352 43.6251 21.27 43.6032 21.5361C43.5312 22.43 43.4498 23.3223 43.3778 24.2161C43.3074 25.0802 43.2463 25.9459 43.1806 26.81H48.2181C48.0538 24.872 47.8957 22.992 47.7313 21.043H47.7297ZM39.4611 49.6294C39.5425 48.662 39.6223 47.7258 39.7037 46.7693H31.7169V49.6294H39.4611ZM31.7059 42.801V44.9394H39.8603C39.9213 44.2099 39.9777 43.5211 40.0372 42.801H31.7059Z" fill="white"/>
<path d="M43.8255 0C44.2748 0.259862 44.4532 0.637132 44.4329 1.16468C44.4 2.00219 44.4141 2.8444 44.4266 3.68347C44.4407 4.63995 44.9542 5.17533 45.906 5.20038C46.8233 5.22386 47.7422 5.20038 48.6596 5.20977C51.2003 5.23638 52.9207 6.95053 52.9332 9.48654C52.9363 10.1472 52.9379 10.825 52.8048 11.4668C52.4636 13.1058 51.0594 14.3347 49.3797 14.557C49.1668 14.5852 48.9523 14.6008 48.7394 14.6274C48.0443 14.712 47.5982 15.1346 47.5293 15.8375C47.4855 16.2821 47.5184 16.7345 47.4949 17.1822C47.4651 17.7536 47.1348 18.0917 46.6339 18.0933C46.1376 18.0949 45.7776 17.7567 45.7588 17.1916C45.7385 16.6281 45.7369 16.0567 45.8058 15.4978C45.9795 14.0654 47.1552 12.9822 48.5969 12.871C50.4019 12.7332 51.1815 11.8942 51.183 10.0892C51.183 9.89355 51.1846 9.69944 51.183 9.50376C51.1643 7.93206 50.2313 6.98497 48.669 6.96619C47.8095 6.95679 46.9501 6.96932 46.0907 6.96306C43.9413 6.94584 42.6718 5.67001 42.6671 3.53006C42.6655 2.76925 42.6906 2.00532 42.6593 1.24609C42.6373 0.710708 42.7876 0.294302 43.2416 0H43.8271H43.8255Z" fill="white"/>
<path d="M48.0459 0C48.5375 0.252035 48.716 0.660614 48.6815 1.20225C48.6502 1.68754 48.6909 2.17752 48.6502 2.66281C48.6095 3.134 48.3089 3.39856 47.8346 3.41421C47.3603 3.43143 47.0096 3.18879 46.9705 2.72229C46.9141 2.06637 46.9063 1.39637 46.9752 0.742016C47.0034 0.480589 47.2914 0.245773 47.462 0H48.0475H48.0459Z" fill="white"/>
<path d="M8.44824 45.7071H12.9505C12.963 45.5364 12.9865 45.3689 12.9865 45.203C12.988 42.5684 12.9802 39.9337 12.9959 37.2975C12.9974 36.9218 12.88 36.7622 12.52 36.6432C11.1925 36.2033 9.87748 35.7196 8.48738 35.228C8.47016 35.4722 8.44824 35.6538 8.44824 35.8354C8.44354 36.889 8.45607 37.9441 8.43728 38.9976C8.42789 39.5299 8.09289 39.8539 7.6076 39.8696C7.12701 39.8852 6.71687 39.5737 6.70904 39.0618C6.68243 37.3445 6.67147 35.6272 6.7153 33.9099C6.73252 33.254 7.32269 32.9675 8.02714 33.2086C9.4282 33.6876 10.8215 34.1886 12.2178 34.6817C16.8484 36.316 21.4743 37.9597 26.1111 39.5768C26.7513 39.8007 26.9955 40.1654 26.9862 40.8307C26.9595 42.6654 26.9799 44.5001 26.9752 46.3348C26.9736 47.2255 26.7106 47.4964 25.8309 47.4964C19.8384 47.4995 13.8443 47.4995 7.85181 47.4964C6.98143 47.4964 6.69339 47.2036 6.69026 46.3379C6.68556 45.1466 6.684 43.9569 6.69026 42.7656C6.69339 42.0533 7.04874 41.6338 7.60604 41.6541C8.14768 41.6729 8.44198 42.058 8.44511 42.7687C8.44981 43.7221 8.44511 44.677 8.44511 45.7102L8.44824 45.7071ZM14.7805 37.4494V45.6851H18.9586C18.9586 43.4857 18.9617 41.3411 18.9492 39.1964C18.9492 39.0774 18.8349 38.8896 18.73 38.852C17.4354 38.3777 16.133 37.9253 14.7805 37.4494ZM20.751 39.558V45.6898H25.2203C25.2203 44.2418 25.225 42.8407 25.2125 41.4397C25.2125 41.3129 25.1202 41.1062 25.0231 41.0702C23.6205 40.5583 22.21 40.0684 20.7526 39.5565L20.751 39.558Z" fill="white"/>
<path d="M38.4545 10.2023C38.4545 9.85168 38.4357 9.49946 38.4592 9.15036C38.4937 8.60872 38.8678 8.24242 39.3468 8.24712C39.8352 8.25181 40.1875 8.61343 40.2047 9.16446C40.2219 9.70923 40.2047 10.2555 40.2125 10.8019C40.2235 11.6519 40.546 12.0104 41.3756 12.1075C43.1728 12.3172 44.148 13.4162 44.1574 15.2415C44.159 15.5921 44.1715 15.9443 44.1527 16.2934C44.1214 16.8961 43.7833 17.2468 43.262 17.2436C42.7313 17.2405 42.4198 16.8977 42.4026 16.2793C42.39 15.8504 42.4151 15.4199 42.3916 14.9925C42.3587 14.3773 42.03 14.0063 41.4555 13.8874C39.0259 13.3817 38.453 12.6773 38.4561 10.2023H38.4545Z" fill="white"/>
<path d="M47.611 54.3332C47.5688 54.579 47.5656 54.842 47.4733 55.069C47.3167 55.4572 46.9567 55.6842 46.5825 55.537C46.2867 55.4212 46.0033 55.1206 45.8546 54.8295C45.7341 54.5978 45.8123 54.2565 45.8217 53.9653C45.8405 53.383 46.199 52.9979 46.7015 53.001C47.2009 53.0042 47.55 53.3924 47.575 53.9763C47.5797 54.0937 47.575 54.2096 47.575 54.327C47.5876 54.3285 47.5985 54.3317 47.611 54.3332Z" fill="white"/>
<path d="M42.0707 54.3077C42.0707 54.4642 42.0863 54.6208 42.0675 54.7757C42.0112 55.2422 41.7497 55.5256 41.2754 55.5631C40.7682 55.6038 40.4489 55.3346 40.3518 54.8587C40.2908 54.5581 40.3095 54.2372 40.3252 53.9273C40.3518 53.3825 40.7134 53.0115 41.1909 53.0021C41.6934 52.9927 42.0503 53.3762 42.0754 53.9586C42.08 54.076 42.0754 54.1918 42.0754 54.3092H42.0691L42.0707 54.3077Z" fill="white"/>
<path d="M51.3211 54.2814C51.3211 54.1248 51.3101 53.9683 51.3227 53.8133C51.3649 53.3358 51.653 53.0572 52.1085 53.0149C52.5703 52.9711 52.9304 53.209 53.0133 53.6662C53.0853 54.0606 53.0932 54.488 53.0259 54.8825C52.9429 55.3631 52.5907 55.6136 52.0866 55.5603C51.6138 55.5102 51.3618 55.2191 51.3211 54.7494C51.307 54.5945 51.3195 54.4379 51.3211 54.2814Z" fill="white"/>
<path d="M36.5701 54.3108C36.5701 54.4862 36.592 54.6646 36.5654 54.8353C36.4966 55.2751 36.2289 55.5303 35.7827 55.5616C35.3397 55.5945 34.9906 55.3972 34.9045 54.9621C34.8262 54.5691 34.8153 54.1465 34.8654 53.7488C34.9264 53.262 35.2739 52.9818 35.7639 53.0131C36.2461 53.0444 36.5451 53.3356 36.578 53.8443C36.5873 53.9993 36.578 54.1559 36.578 54.3108C36.5748 54.3108 36.5733 54.3108 36.5701 54.3108Z" fill="white"/>
</g>
</svg>
