<svg width="100%" height="100%" viewBox="0 0 39 33" fill="none" xmlns="http://www.w3.org/2000/svg">
<path fill-rule="evenodd" clip-rule="evenodd" d="M37.6998 2.45001C38.2745 1.97538 38.3677 1.10965 37.9079 0.516361C37.4482 -0.0769299 36.6096 -0.173121 36.0349 0.301512L30.1267 5.18117C29.804 4.88195 29.4734 4.58842 29.1355 4.30275C26.3433 1.94254 22.9039 5.06813e-05 19.1 5.06813e-05C15.2961 5.06813e-05 11.8566 1.94254 9.06447 4.30275C6.25705 6.67585 3.96147 9.59086 2.4189 11.8092L2.29168 11.9918C1.36305 13.324 0.598627 14.4205 0.598627 16.05C0.598627 17.6795 1.36305 18.776 2.29168 20.1082L2.4189 20.2908C3.38661 21.6825 4.65066 23.3483 6.15152 24.9825L0.500133 29.65C-0.0745471 30.1246 -0.167721 30.9903 0.292023 31.5836C0.751767 32.1769 1.59033 32.2731 2.16501 31.7985L37.6998 2.45001ZM13.1688 19.1869L15.3235 17.4072C15.1802 16.9822 15.1023 16.5255 15.1023 16.05C15.1023 13.7706 16.8921 11.9229 19.1 11.9229C19.875 11.9229 20.5984 12.1505 21.2111 12.5446L23.3653 10.7655C22.2097 9.77024 20.7226 9.17145 19.1 9.17145C15.4202 9.17145 12.4372 12.2511 12.4372 16.05C12.4372 17.18 12.7011 18.2463 13.1688 19.1869Z" fill="white"/>
<path d="M34.549 10.1158L25.6157 17.4938C24.9731 20.5995 22.3 22.9285 19.1 22.9285L19.0358 22.9282L11.19 29.4082C13.534 30.9803 16.212 32.0999 19.1 32.0999C22.9039 32.0999 26.3433 30.1575 29.1355 27.7972C31.9429 25.4242 34.2385 22.5091 35.7811 20.2908L35.9083 20.1082C36.8369 18.776 37.6013 17.6795 37.6013 16.05C37.6013 14.4205 36.8369 13.324 35.9083 11.9918L35.7811 11.8092C35.4123 11.2789 35.0005 10.7088 34.549 10.1158Z" fill="white"/>
</svg>
