<svg width="512" height="512" viewBox="0 0 512 512" fill="none" xmlns="http://www.w3.org/2000/svg">
<path d="M0.395307 395.16C6.42174 344.682 49.1361 300.514 100.82 299.283C103.312 299.221 105.071 301.824 104.044 304.099C84.4539 347.939 22.3833 378.781 49.0583 432.423C66.9819 471.12 117.327 481.719 149.203 453.37C166.97 436.304 184.661 417.79 208.33 409.576C210.667 408.767 213.065 410.651 212.893 413.114C202.646 552.723 -10.3806 537.091 0.395307 395.16Z" fill="url(#paint0_linear_1595_133)"/>
<path d="M0.395307 395.16C6.42174 344.682 49.1361 300.514 100.82 299.283C103.312 299.221 105.071 301.824 104.044 304.099C84.4539 347.939 22.3833 378.781 49.0583 432.423C66.9819 471.12 117.327 481.719 149.203 453.37C166.97 436.304 184.661 417.79 208.33 409.576C210.667 408.767 213.065 410.651 212.893 413.114C202.646 552.723 -10.3806 537.091 0.395307 395.16Z" fill="#78E1C2"/>
<path d="M117.298 0.180783C167.783 6.19649 211.572 48.8987 213.144 100.5C213.223 103.056 210.529 104.786 208.208 103.695C186.704 93.6269 170.181 79.0083 153.317 62.5508C122.748 30.1035 63.7921 39.5634 48.2199 82.2344C23.0242 139.602 86.7766 161.389 103.283 208.673C104.108 211.042 102.131 213.473 99.6237 213.209C-40.8218 198.746 -26.4798 -6.59858 117.298 0.180783Z" fill="url(#paint1_linear_1595_133)"/>
<path d="M117.298 0.180783C167.783 6.19649 211.572 48.8987 213.144 100.5C213.223 103.056 210.529 104.786 208.208 103.695C186.704 93.6269 170.181 79.0083 153.317 62.5508C122.748 30.1035 63.7921 39.5634 48.2199 82.2344C23.0242 139.602 86.7766 161.389 103.283 208.673C104.108 211.042 102.131 213.473 99.6237 213.209C-40.8218 198.746 -26.4798 -6.59858 117.298 0.180783Z" fill="#78E1C2"/>
<path d="M413.354 0C493.598 8.58719 538.523 94.8955 495.108 163.889C476.376 193.967 447.255 210.752 412.296 212.872C409.648 213.028 407.842 210.238 409.026 207.869C412.887 200.046 416.235 192.456 421.094 185.988C429.845 174.315 439.812 163.5 449.903 152.933C506.959 92.137 427.073 6.68586 363.336 58.8168C354.616 66.5468 346.675 75.1341 337.892 82.7706C328.035 91.3266 316.838 97.7319 303.82 102.813C301.422 103.748 298.853 101.8 299.117 99.228C304.537 46.9412 339.527 10.1301 391.133 0.841576L413.37 0H413.354Z" fill="url(#paint2_linear_1595_133)"/>
<path d="M413.354 0C493.598 8.58719 538.523 94.8955 495.108 163.889C476.376 193.967 447.255 210.752 412.296 212.872C409.648 213.028 407.842 210.238 409.026 207.869C412.887 200.046 416.235 192.456 421.094 185.988C429.845 174.315 439.812 163.5 449.903 152.933C506.959 92.137 427.073 6.68586 363.336 58.8168C354.616 66.5468 346.675 75.1341 337.892 82.7706C328.035 91.3266 316.838 97.7319 303.82 102.813C301.422 103.748 298.853 101.8 299.117 99.228C304.537 46.9412 339.527 10.1301 391.133 0.841576L413.37 0H413.354Z" fill="#78E1C2"/>
<path d="M431.9 408.431C423.989 416.349 416.717 423.611 408.277 432.042C406.455 433.866 403.497 433.866 401.659 432.042C401.27 431.669 400.912 431.31 400.6 431.03C384.872 416.458 370.203 400.375 352.949 387.859C317.414 362.067 276.91 353.106 233.292 358.795C202.537 362.8 174.726 374.239 150.854 393.891C137.01 405.284 124.661 418.484 111.72 430.967C111.471 431.201 111.191 431.482 110.91 431.762C109.073 433.57 106.099 433.555 104.277 431.731C95.8837 423.316 88.5493 415.944 80.7164 408.089C78.8945 406.25 78.8789 403.289 80.7164 401.45C87.5058 394.686 94.4667 387.72 101.459 380.784C114.041 368.286 125.222 354.711 133.755 339.079C151.865 305.884 158.64 270.569 153.578 233.01C149.405 202.075 137.757 174.256 118.137 150.115C109.027 138.91 98.3908 128.935 88.3623 118.493C85.8863 115.907 83.2859 113.429 80.7787 111.075C78.8634 109.252 78.8166 106.197 80.6853 104.327C88.5648 96.4254 95.9149 89.0382 104.308 80.6225C106.146 78.7835 109.136 78.7679 110.973 80.6225C111.223 80.8718 111.471 81.1057 111.705 81.3238C127.449 95.8955 142.117 111.963 159.356 124.477C194.891 150.271 235.395 159.216 279.013 153.543C309.938 149.523 337.859 137.943 361.856 118.151C375.559 106.852 387.784 93.7605 400.585 81.3705C400.849 81.1057 401.145 80.8251 401.473 80.5134C403.31 78.7211 406.253 78.7524 408.059 80.5757C416.453 89.0226 423.771 96.3942 431.62 104.296C433.442 106.119 433.442 109.08 431.62 110.904C424.254 118.229 416.67 125.756 409.118 133.33C394.309 148.182 381.914 164.749 373.13 183.903C356.219 220.839 352.606 259.021 362.402 298.419C370.157 329.573 386.102 356.067 408.729 378.665C416.453 386.379 424.161 394.078 431.9 401.808C433.738 403.631 433.738 406.608 431.9 408.447V408.431Z" fill="url(#paint3_linear_1595_133)"/>
<path d="M431.9 408.431C423.989 416.349 416.717 423.611 408.277 432.042C406.455 433.866 403.497 433.866 401.659 432.042C401.27 431.669 400.912 431.31 400.6 431.03C384.872 416.458 370.203 400.375 352.949 387.859C317.414 362.067 276.91 353.106 233.292 358.795C202.537 362.8 174.726 374.239 150.854 393.891C137.01 405.284 124.661 418.484 111.72 430.967C111.471 431.201 111.191 431.482 110.91 431.762C109.073 433.57 106.099 433.555 104.277 431.731C95.8837 423.316 88.5493 415.944 80.7164 408.089C78.8945 406.25 78.8789 403.289 80.7164 401.45C87.5058 394.686 94.4667 387.72 101.459 380.784C114.041 368.286 125.222 354.711 133.755 339.079C151.865 305.884 158.64 270.569 153.578 233.01C149.405 202.075 137.757 174.256 118.137 150.115C109.027 138.91 98.3908 128.935 88.3623 118.493C85.8863 115.907 83.2859 113.429 80.7787 111.075C78.8634 109.252 78.8166 106.197 80.6853 104.327C88.5648 96.4254 95.9149 89.0382 104.308 80.6225C106.146 78.7835 109.136 78.7679 110.973 80.6225C111.223 80.8718 111.471 81.1057 111.705 81.3238C127.449 95.8955 142.117 111.963 159.356 124.477C194.891 150.271 235.395 159.216 279.013 153.543C309.938 149.523 337.859 137.943 361.856 118.151C375.559 106.852 387.784 93.7605 400.585 81.3705C400.849 81.1057 401.145 80.8251 401.473 80.5134C403.31 78.7211 406.253 78.7524 408.059 80.5757C416.453 89.0226 423.771 96.3942 431.62 104.296C433.442 106.119 433.442 109.08 431.62 110.904C424.254 118.229 416.67 125.756 409.118 133.33C394.309 148.182 381.914 164.749 373.13 183.903C356.219 220.839 352.606 259.021 362.402 298.419C370.157 329.573 386.102 356.067 408.729 378.665C416.453 386.379 424.161 394.078 431.9 401.808C433.738 403.631 433.738 406.608 431.9 408.447V408.431Z" fill="#088B95"/>
<path d="M299.492 412.79C299.352 410.281 301.89 408.457 304.226 409.376C316.762 414.27 327.974 420.94 337.94 429.59C345.726 436.354 352.905 443.787 360.38 450.909C395.432 484.292 451.757 470.515 466.162 424.743C473.293 402.082 468.715 381.246 453.174 363.199C446.556 355.516 439.096 348.565 432.198 341.116C420.816 330.954 413.029 313.156 409.775 304.553C408.871 302.169 410.662 299.581 413.216 299.675C457.97 301.359 507.162 338.294 511.617 398.046C516.148 458.842 468.388 511.02 407.019 511.986C347.424 512.922 302.483 466.027 299.492 412.759V412.79Z" fill="url(#paint4_linear_1595_133)"/>
<path d="M299.492 412.79C299.352 410.281 301.89 408.457 304.226 409.376C316.762 414.27 327.974 420.94 337.94 429.59C345.726 436.354 352.905 443.787 360.38 450.909C395.432 484.292 451.757 470.515 466.162 424.743C473.293 402.082 468.715 381.246 453.174 363.199C446.556 355.516 439.096 348.565 432.198 341.116C420.816 330.954 413.029 313.156 409.775 304.553C408.871 302.169 410.662 299.581 413.216 299.675C457.97 301.359 507.162 338.294 511.617 398.046C516.148 458.842 468.388 511.02 407.019 511.986C347.424 512.922 302.483 466.027 299.492 412.759V412.79Z" fill="#78E1C2"/>
<defs>
<linearGradient id="paint0_linear_1595_133" x1="106.451" y1="299.282" x2="106.451" y2="510.089" gradientUnits="userSpaceOnUse">
<stop stop-color="#179655"/>
<stop offset="1" stop-color="#234093"/>
</linearGradient>
<linearGradient id="paint1_linear_1595_133" x1="107.343" y1="0.016602" x2="107.343" y2="213.228" gradientUnits="userSpaceOnUse">
<stop stop-color="#179655"/>
<stop offset="1" stop-color="#234093"/>
</linearGradient>
<linearGradient id="paint2_linear_1595_133" x1="405.549" y1="0" x2="405.549" y2="212.878" gradientUnits="userSpaceOnUse">
<stop stop-color="#179655"/>
<stop offset="1" stop-color="#234093"/>
</linearGradient>
<linearGradient id="paint3_linear_1595_133" x1="256.295" y1="79.1884" x2="256.295" y2="433.411" gradientUnits="userSpaceOnUse">
<stop stop-color="#179655"/>
<stop offset="1" stop-color="#234093"/>
</linearGradient>
<linearGradient id="paint4_linear_1595_133" x1="405.7" y1="299.673" x2="405.7" y2="512" gradientUnits="userSpaceOnUse">
<stop stop-color="#179655"/>
<stop offset="1" stop-color="#234093"/>
</linearGradient>
</defs>
</svg>
