<svg width="100%" height="100%" viewBox="0 0 104 33" fill="none" xmlns="http://www.w3.org/2000/svg">
    <g clip-path="url(#clip0_109_280)">
        <!--Текст-->
        <g id="textGroup">
            <path d="M51.6393 9.72538L50.1304 11.3705H45.1949V25.6313H38.6143V6.43439H51.6393V9.72538Z" fill="#292929"/>
            <path d="M52.875 6.43372H69.3266V9.72404L67.8177 11.3692H64.3911V25.63H57.8105V11.3692H52.875V6.43372Z" fill="#292929"/>
            <path d="M71.6713 6.43375L66.0117 23.1592V25.6253H72.0226L76.711 11.3646H77.9367V25.6253H84.5173V6.42841L71.6713 6.43375Z" fill="#292929"/>
            <path d="M99.5915 15.8305L103.638 8.9038V6.43439H97.8208L93.9533 13.5614H92.7203V6.43439H86.1396V25.6313H92.7203V18.5043H93.9533L98.0138 25.6313H104.021V23.1652L99.5915 15.8305Z" fill="#292929"/>
        </g>
        <!--Иконка-->
        <g id="iconGroup">
            <path d="M19.3439 12.7178L17.4336 10.8075L19.8135 1.93042L24.3228 7.74026L19.3439 12.7178Z" fill="#BCBEC0"/>
            <path d="M16.031 9.41142L17.429 10.8094L19.8089 1.93237L11.7334 -0.00335693L13.8481 7.89183L16.031 9.41142Z" fill="#A7A9AC"/>
            <path d="M7.74823 7.74825L3.59424 3.59426L11.7366 0.00268555L13.8513 7.89787L7.74823 7.74825Z" fill="#BCBEC0"/>
            <path d="M7.74839 7.74817L3.5944 3.59418L0.00683594 11.7432L1.03214 16.0374L1.93922 12.2595L7.74839 7.74817Z" fill="#D1D3D4"/>
            <path d="M22.6501 16.0308L19.3384 12.7191L24.3173 7.7442L24.1667 13.8479L22.6501 16.0308Z" fill="#D1D3D4"/>
            <path d="M12.7176 12.7178L10.8072 14.6281L1.93018 12.2515L7.74002 7.74219L12.7176 12.7178Z" fill="#14816E"/>
            <path d="M9.41135 16.0308L10.8094 14.6294L1.9323 12.2529L-0.00341797 20.3217L7.89176 18.207L9.41135 16.0308Z" fill="#156D7E"/>
            <path d="M7.74849 24.3201L3.5945 28.4707L0.00292969 20.3284L7.89811 18.2137L7.74849 24.3201Z" fill="#1A588B"/>
            <path d="M7.74823 24.3201L3.59424 28.4707L11.7432 32.059L16.0375 31.0377L12.2596 30.1306L7.74823 24.3201Z" fill="#234093"/>
            <path d="M16.0307 9.41141L12.719 12.7198L7.74414 7.74487L13.8479 7.89182L16.0307 9.41141Z" fill="#189655"/>
            <path d="M12.7178 19.3439L14.6281 21.2542L12.2515 30.1313L7.74219 24.3214L12.7178 19.3439Z" fill="#BCBEC0"/>
            <path d="M16.0309 22.6503L14.6295 21.2489L12.2529 30.126L20.3218 32.0577L18.207 24.1625L16.0309 22.6503Z" fill="#A7A9AC"/>
            <path d="M24.3203 24.3201L28.4709 28.4708L20.3286 32.0624L18.2139 24.1672L24.3203 24.3201Z" fill="#BCBEC0"/>
            <path d="M24.3203 24.3201L28.471 28.4708L32.0592 20.3284L31.0379 16.0342L30.1308 19.8121L24.3203 24.3201Z" fill="#D1D3D4"/>
            <path d="M9.41117 16.0308L12.7195 19.3392L7.74463 24.3181L7.89158 18.2103L9.41117 16.0308Z" fill="#D1D3D4"/>
            <path d="M19.3438 19.3439L21.2541 17.4335L30.1312 19.8134L24.3213 24.3228L19.3438 19.3439Z" fill="#1A588B"/>
            <path d="M22.6504 16.0308L21.249 17.4288L30.1261 19.8087L32.0578 11.7332L24.1626 13.8479L22.6504 16.0308Z" fill="#156D7E"/>
            <path d="M24.32 7.74817L28.4706 3.59418L32.0622 11.7365L24.167 13.8512L24.32 7.74817Z" fill="#14816E"/>
            <path d="M24.3201 7.74827L28.4708 3.59428L20.3284 0.00671387L16.0342 1.03202L19.8121 1.9391L24.3201 7.74827Z" fill="#189655"/>
            <path d="M16.0308 22.6502L19.3391 19.3385L24.318 24.3174L18.2103 24.1669L16.0308 22.6502Z" fill="#234093"/>
        </g>

    </g>
<defs>

<clipPath id="clip0_109_280">
    <rect width="104" height="32.0617" fill="white"/>
    </clipPath>
</defs>

</svg>
