<svg width="100%" height="100%" viewBox="0 0 143 32" fill="none" xmlns="http://www.w3.org/2000/svg">
<g clip-path="url(#clip0_1590_70)">
<path d="M136.54 7.61701C134.476 7.61701 132.522 6.2859 132.522 3.69141H135.608C135.608 4.25543 136.007 4.6164 136.54 4.6164C137.073 4.6164 137.472 4.25543 137.472 3.69141H140.558C140.558 6.2859 138.604 7.61701 136.54 7.61701ZM139.004 24.8986V18.5139C139.026 18.5139 139.404 15.5133 139.404 15.5133L139.293 15.4907L137.805 18.6041L134.032 24.8986H130.28V8.92554H134.276V16.1675C134.253 16.1675 133.943 18.559 133.943 18.559L134.032 18.5815L135.342 15.7163L139.359 8.92554H143V24.8986H139.004Z" fill="#292929"/>
<path d="M122.505 8.9248L128.121 24.8979H123.859L122.837 21.6942H118.642L117.665 24.8979H113.403L118.886 8.9248H122.505ZM119.53 18.1071H121.883L120.795 13.4369H120.685L119.53 18.1071Z" fill="#292929"/>
<path d="M113.804 12.7377H109.631V24.8979H105.613V12.7377H101.439V8.90234H113.804V12.7377Z" fill="#292929"/>
<path d="M92.2316 12.715V15.1967H98.603V18.6937H92.2316V21.0851H99.158V24.8979H88.2139V8.9248H99.158V12.715H92.2316Z" fill="#292929"/>
<path d="M77.713 12.7601L77.4467 17.6107C77.2466 21.3107 75.6264 25.4167 70.498 24.8979V21.1302C73.7392 21.3107 73.4951 17.8137 73.7392 14.2717L74.117 8.9248H84.6163V24.8979H80.6209V12.7601H77.713Z" fill="#292929"/>
<path d="M63.5858 8.9248L69.2018 24.8979H64.9399L63.9188 21.6942H59.7232L58.7465 24.8979H54.4844L59.9674 8.9248H63.5858ZM60.6112 18.1071H62.9642L61.8765 13.4369H61.7655L60.6112 18.1071Z" fill="#292929"/>
<path d="M43.7438 18.8741V24.8979H39.748V8.9248H43.7438V14.9711H48.2723V8.9248H52.268V24.8979H48.2723V18.8741H43.7438Z" fill="#292929"/>
<path d="M0.0243295 24.6974C0.395231 21.5425 3.02412 18.7821 6.20506 18.7051C6.3584 18.7013 6.4667 18.8639 6.40345 19.0061C5.19778 21.7461 1.3776 23.6737 3.01933 27.0263C4.12245 29.4449 7.22098 30.1073 9.18283 28.3355C10.2763 27.2689 11.3651 26.1117 12.8219 25.5984C12.9656 25.5478 13.1132 25.6656 13.1027 25.8195C12.472 34.545 -0.638884 33.568 0.0243295 24.6974Z" fill="url(#paint0_linear_1590_70)"/>
<path d="M0.0243295 24.6974C0.395231 21.5425 3.02412 18.7821 6.20506 18.7051C6.3584 18.7013 6.4667 18.8639 6.40345 19.0061C5.19778 21.7461 1.3776 23.6737 3.01933 27.0263C4.12245 29.4449 7.22098 30.1073 9.18283 28.3355C10.2763 27.2689 11.3651 26.1117 12.8219 25.5984C12.9656 25.5478 13.1132 25.6656 13.1027 25.8195C12.472 34.545 -0.638884 33.568 0.0243295 24.6974Z" fill="#78E1C2"/>
<path d="M7.21916 0.0112378C10.3263 0.387217 13.0213 3.05609 13.1181 6.28113C13.123 6.44087 12.9571 6.54899 12.8143 6.48081C11.4908 5.85158 10.4739 4.93793 9.43598 3.90934C7.55462 1.88139 3.92611 2.47263 2.96771 5.13955C1.41701 8.72501 5.34071 10.0867 6.35662 13.0419C6.40741 13.19 6.28569 13.3419 6.13139 13.3254C-2.51244 12.4215 -1.62974 -0.412469 7.21916 0.0112378Z" fill="url(#paint1_linear_1590_70)"/>
<path d="M7.21916 0.0112378C10.3263 0.387217 13.0213 3.05609 13.1181 6.28113C13.123 6.44087 12.9571 6.54899 12.8143 6.48081C11.4908 5.85158 10.4739 4.93793 9.43598 3.90934C7.55462 1.88139 3.92611 2.47263 2.96771 5.13955C1.41701 8.72501 5.34071 10.0867 6.35662 13.0419C6.40741 13.19 6.28569 13.3419 6.13139 13.3254C-2.51244 12.4215 -1.62974 -0.412469 7.21916 0.0112378Z" fill="#78E1C2"/>
<path d="M25.4402 0C30.3789 0.536696 33.1438 5.93093 30.4718 10.243C29.3189 12.1229 27.5267 13.1719 25.375 13.3044C25.2121 13.3141 25.1009 13.1398 25.1738 12.9917C25.4114 12.5028 25.6175 12.0284 25.9165 11.6242C26.4551 10.8946 27.0685 10.2187 27.6896 9.55827C31.2012 5.75852 26.2845 0.417863 22.3618 3.67603C21.8251 4.15915 21.3363 4.69585 20.7958 5.17313C20.1891 5.70787 19.5 6.1082 18.6988 6.42574C18.5512 6.48418 18.3931 6.36243 18.4094 6.20171C18.7429 2.93381 20.8964 0.633126 24.0726 0.0525981L25.4412 0H25.4402Z" fill="url(#paint2_linear_1590_70)"/>
<path d="M25.4402 0C30.3789 0.536696 33.1438 5.93093 30.4718 10.243C29.3189 12.1229 27.5267 13.1719 25.375 13.3044C25.2121 13.3141 25.1009 13.1398 25.1738 12.9917C25.4114 12.5028 25.6175 12.0284 25.9165 11.6242C26.4551 10.8946 27.0685 10.2187 27.6896 9.55827C31.2012 5.75852 26.2845 0.417863 22.3618 3.67603C21.8251 4.15915 21.3363 4.69585 20.7958 5.17313C20.1891 5.70787 19.5 6.1082 18.6988 6.42574C18.5512 6.48418 18.3931 6.36243 18.4094 6.20171C18.7429 2.93381 20.8964 0.633126 24.0726 0.0525981L25.4412 0H25.4402Z" fill="#78E1C2"/>
<path d="M26.5816 25.5268C26.0947 26.0216 25.6472 26.4755 25.1277 27.0024C25.0156 27.1164 24.8335 27.1164 24.7204 27.0024C24.6965 26.9791 24.6744 26.9567 24.6552 26.9392C23.6873 26.0284 22.7844 25.0232 21.7225 24.241C19.5355 22.629 17.0426 22.069 14.3582 22.4245C12.4653 22.6748 10.7536 23.3898 9.28442 24.618C8.43239 25.33 7.67239 26.155 6.87592 26.9352C6.86057 26.9498 6.84331 26.9674 6.82606 26.9849C6.71298 27.0979 6.52995 27.097 6.41781 26.983C5.90123 26.457 5.44983 25.9963 4.96775 25.5054C4.85562 25.3904 4.85466 25.2054 4.96775 25.0904C5.38561 24.6677 5.81402 24.2323 6.24434 23.7988C7.01872 23.0177 7.70689 22.1693 8.23205 21.1923C9.34667 19.1176 9.7636 16.9104 9.45208 14.563C9.19527 12.6296 8.47837 10.8909 7.27081 9.38209C6.71015 8.68176 6.05554 8.05836 5.43833 7.40576C5.28594 7.2441 5.12589 7.08923 4.97159 6.9421C4.85371 6.82816 4.85083 6.63724 4.96584 6.52035C5.45079 6.02652 5.90316 5.56482 6.41973 5.03884C6.53282 4.92391 6.71684 4.92294 6.82993 5.03884C6.84528 5.05443 6.86057 5.06904 6.875 5.08268C7.84392 5.9934 8.74672 6.99763 9.80768 7.77976C11.9947 9.39183 14.4876 9.9509 17.172 9.59636C19.0754 9.3451 20.7938 8.62136 22.2707 7.38436C23.1141 6.67816 23.8665 5.85996 24.6543 5.0856C24.6706 5.06904 24.6888 5.05151 24.7089 5.03203C24.822 4.92001 25.0031 4.92196 25.1143 5.03592C25.6309 5.56385 26.0813 6.02457 26.5644 6.51841C26.6765 6.63238 26.6765 6.81743 26.5644 6.93143C26.1111 7.38923 25.6443 7.8597 25.1795 8.33303C24.2681 9.26129 23.5052 10.2967 22.9646 11.4938C21.9238 13.8023 21.7014 16.1887 22.3043 18.651C22.7816 20.5982 23.763 22.254 25.1555 23.6664C25.6309 24.1485 26.1053 24.6297 26.5816 25.1128C26.6947 25.2268 26.6947 25.4128 26.5816 25.5278V25.5268Z" fill="url(#paint3_linear_1590_70)"/>
<path d="M26.5816 25.5268C26.0947 26.0216 25.6472 26.4755 25.1277 27.0024C25.0156 27.1164 24.8335 27.1164 24.7204 27.0024C24.6965 26.9791 24.6744 26.9567 24.6552 26.9392C23.6873 26.0284 22.7844 25.0232 21.7225 24.241C19.5355 22.629 17.0426 22.069 14.3582 22.4245C12.4653 22.6748 10.7536 23.3898 9.28442 24.618C8.43239 25.33 7.67239 26.155 6.87592 26.9352C6.86057 26.9498 6.84331 26.9674 6.82606 26.9849C6.71298 27.0979 6.52995 27.097 6.41781 26.983C5.90123 26.457 5.44983 25.9963 4.96775 25.5054C4.85562 25.3904 4.85466 25.2054 4.96775 25.0904C5.38561 24.6677 5.81402 24.2323 6.24434 23.7988C7.01872 23.0177 7.70689 22.1693 8.23205 21.1923C9.34667 19.1176 9.7636 16.9104 9.45208 14.563C9.19527 12.6296 8.47837 10.8909 7.27081 9.38209C6.71015 8.68176 6.05554 8.05836 5.43833 7.40576C5.28594 7.2441 5.12589 7.08923 4.97159 6.9421C4.85371 6.82816 4.85083 6.63724 4.96584 6.52035C5.45079 6.02652 5.90316 5.56482 6.41973 5.03884C6.53282 4.92391 6.71684 4.92294 6.82993 5.03884C6.84528 5.05443 6.86057 5.06904 6.875 5.08268C7.84392 5.9934 8.74672 6.99763 9.80768 7.77976C11.9947 9.39183 14.4876 9.9509 17.172 9.59636C19.0754 9.3451 20.7938 8.62136 22.2707 7.38436C23.1141 6.67816 23.8665 5.85996 24.6543 5.0856C24.6706 5.06904 24.6888 5.05151 24.7089 5.03203C24.822 4.92001 25.0031 4.92196 25.1143 5.03592C25.6309 5.56385 26.0813 6.02457 26.5644 6.51841C26.6765 6.63238 26.6765 6.81743 26.5644 6.93143C26.1111 7.38923 25.6443 7.8597 25.1795 8.33303C24.2681 9.26129 23.5052 10.2967 22.9646 11.4938C21.9238 13.8023 21.7014 16.1887 22.3043 18.651C22.7816 20.5982 23.763 22.254 25.1555 23.6664C25.6309 24.1485 26.1053 24.6297 26.5816 25.1128C26.6947 25.2268 26.6947 25.4128 26.5816 25.5278V25.5268Z" fill="#088B95"/>
<path d="M18.4325 25.7992C18.4239 25.6424 18.5801 25.5284 18.7238 25.5859C19.4954 25.8918 20.1854 26.3086 20.7988 26.8492C21.278 27.272 21.7198 27.7366 22.1799 28.1817C24.3372 30.2681 27.8038 29.407 28.6903 26.5463C29.1292 25.13 28.8475 23.8278 27.8909 22.6998C27.4836 22.2196 27.0245 21.7852 26.6 21.3196C25.8994 20.6846 25.4202 19.5722 25.2199 19.0345C25.1643 18.8855 25.2745 18.7238 25.4317 18.7296C28.1861 18.8348 31.2137 21.1433 31.4878 24.8778C31.7668 28.6775 28.8273 31.9386 25.0503 31.999C21.3825 32.0574 18.6165 29.1266 18.4325 25.7973V25.7992Z" fill="url(#paint4_linear_1590_70)"/>
<path d="M18.4325 25.7992C18.4239 25.6424 18.5801 25.5284 18.7238 25.5859C19.4954 25.8918 20.1854 26.3086 20.7988 26.8492C21.278 27.272 21.7198 27.7366 22.1799 28.1817C24.3372 30.2681 27.8038 29.407 28.6903 26.5463C29.1292 25.13 28.8475 23.8278 27.8909 22.6998C27.4836 22.2196 27.0245 21.7852 26.6 21.3196C25.8994 20.6846 25.4202 19.5722 25.2199 19.0345C25.1643 18.8855 25.2745 18.7238 25.4317 18.7296C28.1861 18.8348 31.2137 21.1433 31.4878 24.8778C31.7668 28.6775 28.8273 31.9386 25.0503 31.999C21.3825 32.0574 18.6165 29.1266 18.4325 25.7973V25.7992Z" fill="#78E1C2"/>
</g>
<defs>
<linearGradient id="paint0_linear_1590_70" x1="6.5516" y1="18.7051" x2="6.5516" y2="31.8804" gradientUnits="userSpaceOnUse">
<stop stop-color="#179655"/>
<stop offset="1" stop-color="#234093"/>
</linearGradient>
<linearGradient id="paint1_linear_1590_70" x1="6.60649" y1="0.000976592" x2="6.60649" y2="13.3266" gradientUnits="userSpaceOnUse">
<stop stop-color="#179655"/>
<stop offset="1" stop-color="#234093"/>
</linearGradient>
<linearGradient id="paint2_linear_1590_70" x1="24.9598" y1="0" x2="24.9598" y2="13.3048" gradientUnits="userSpaceOnUse">
<stop stop-color="#179655"/>
<stop offset="1" stop-color="#234093"/>
</linearGradient>
<linearGradient id="paint3_linear_1590_70" x1="15.7739" y1="4.94922" x2="15.7739" y2="27.088" gradientUnits="userSpaceOnUse">
<stop stop-color="#179655"/>
<stop offset="1" stop-color="#234093"/>
</linearGradient>
<linearGradient id="paint4_linear_1590_70" x1="24.9691" y1="18.7295" x2="24.9691" y2="31.9998" gradientUnits="userSpaceOnUse">
<stop stop-color="#179655"/>
<stop offset="1" stop-color="#234093"/>
</linearGradient>
<clipPath id="clip0_1590_70">
<rect width="143" height="32" fill="white"/>
</clipPath>
</defs>
</svg>
