<svg width="100%" height="100%" viewBox="0 0 59 48" fill="none" xmlns="http://www.w3.org/2000/svg">
<path d="M26.5503 19.4696C26.5503 19.7579 26.5503 19.9311 26.5503 20.106C26.5503 25.4208 26.5569 30.734 26.5372 36.0488C26.5356 36.5152 26.6866 36.7079 27.1199 36.8553C29.6494 37.7216 32.169 38.6204 34.6919 39.5078C34.8068 39.5483 34.925 39.5839 35.0366 39.6341C35.5881 39.877 35.8179 40.3402 35.6505 40.8568C35.4863 41.3588 34.9923 41.626 34.4145 41.4527C33.6528 41.2244 32.9076 40.941 32.1558 40.677C30.1336 39.9661 28.1163 39.2406 26.0842 38.5556C25.8117 38.4633 25.4292 38.4763 25.1666 38.5912C21.992 39.9888 18.8257 41.4057 15.6692 42.8454C15.0717 43.1174 14.5465 43.153 13.9145 42.9263C9.6287 41.3895 5.32812 39.89 1.03411 38.3791C0.131315 38.0601 0 37.8771 0 36.9152C0 28.1463 0 19.3773 0 10.6068C0 9.3339 0.515413 8.98087 1.74485 9.41324C5.84682 10.8562 9.95206 12.2893 14.0475 13.7532C14.535 13.9281 14.9224 13.9006 15.3787 13.6868C17.0037 12.929 18.6451 12.21 20.3309 11.4521C19.4544 9.10232 19.4856 6.80443 20.6132 4.56806C21.3831 3.04261 22.5354 1.86532 24.0471 1.03944C27.0543 -0.604236 30.7721 -0.273882 33.3049 1.8556C34.8757 3.17702 35.8343 4.85307 36.2266 6.84329C36.5713 8.5906 36.4055 9.54279 35.2959 12.5614C35.9853 12.8091 36.678 13.0504 37.3642 13.3063C38.0634 13.567 38.3359 14.035 38.1291 14.5969C37.9206 15.1621 37.4167 15.3613 36.7174 15.1313C36.0773 14.9192 35.4355 14.707 34.815 14.4512C34.3899 14.2747 34.1486 14.3313 33.8646 14.7297C32.517 16.6244 30.9215 18.3021 29.1143 19.7789C28.136 20.5789 27.9373 20.5757 26.959 19.7838C26.8638 19.7077 26.7654 19.6364 26.5487 19.4712L26.5503 19.4696ZM15.7332 40.6511C16.0172 40.5329 16.2027 40.46 16.3865 40.3774C18.9373 39.2374 21.4832 38.0876 24.0406 36.9654C24.4558 36.7824 24.597 36.5686 24.5954 36.1136C24.5773 30.3794 24.5658 24.6435 24.6019 18.9093C24.6069 18.0089 24.3918 17.3369 23.7582 16.6535C22.908 15.737 22.2333 14.6617 21.4832 13.6544C21.3781 13.5136 21.2813 13.3678 21.1697 13.2091C20.001 13.7338 18.8667 14.239 17.7341 14.7524C17.0841 15.0471 16.1846 15.1912 15.8645 15.6949C15.5297 16.2195 15.7808 17.0956 15.7234 17.813C15.6856 18.281 15.8695 18.5255 16.2585 18.7765C19.4872 20.8623 20.7183 23.9731 19.8073 27.6864C19.195 30.1834 17.8474 32.2757 16.119 34.1574C15.9515 34.3388 15.7546 34.5865 15.7513 34.8068C15.7217 36.7241 15.7349 38.6415 15.7349 40.6495L15.7332 40.6511ZM13.7668 17.677C13.7668 17.0859 13.7963 16.5402 13.7487 16.0009C13.7356 15.8438 13.5337 15.6285 13.3712 15.5702C9.71734 14.2666 6.05856 12.9808 2.39815 11.6966C2.27011 11.6513 2.12403 11.6513 1.96645 11.6286C1.96645 19.8761 1.96973 28.0378 1.9566 36.201C1.9566 36.5962 2.13387 36.7095 2.45396 36.8213C5.82712 37.9986 9.19536 39.1872 12.5652 40.3726C12.9444 40.5054 13.3252 40.6317 13.7323 40.7709V36.5363C13.2678 36.9168 12.8689 37.2536 12.4569 37.5759C12.0351 37.9063 11.582 37.9289 11.1618 37.5889C8.38284 35.3379 5.93381 32.8101 4.39086 29.5503C3.29109 27.2281 3.11053 24.867 4.14136 22.4574C5.43481 19.4324 9.00167 16.7394 13.7651 17.677H13.7668ZM11.8217 35.6294C12.5849 34.8942 13.3285 34.2303 14.0097 33.5113C15.6692 31.7607 17.1711 29.8968 17.8786 27.5487C19.2328 23.0549 15.5116 18.8105 10.8368 19.4939C6.7135 20.0963 4.35311 24.2824 5.9453 28.2094C7.15833 31.2004 9.36114 33.44 11.8217 35.6294ZM28.0178 18.1628C30.324 16.1418 32.3676 14.035 33.6512 11.3258C34.2766 10.006 34.5721 8.62785 34.316 7.14935C33.7136 3.67417 30.2386 1.34064 26.7063 2.07746C23.2198 2.80456 20.9185 6.3429 21.8591 9.71283C22.8423 13.2302 25.3521 15.7094 28.0161 18.1628H28.0178Z" fill="white"/>
<path d="M45.2562 14.0547C53.1499 14.0644 59.4875 20.6925 58.9705 28.4283C58.7719 31.4176 57.6311 34.1074 56.0717 36.6369C53.4109 40.9509 49.8999 44.5152 45.9604 47.6973C45.5074 48.0632 45.0363 48.1199 44.5668 47.7394C39.9133 43.9565 35.7736 39.7396 33.1325 34.3001C31.1924 30.3051 30.8017 26.2211 32.6795 22.0771C34.8938 17.1898 39.828 14.0482 45.2562 14.0563V14.0547ZM45.2415 45.8107C46.1984 44.9443 47.1225 44.1492 47.9974 43.3055C50.9553 40.457 53.6309 37.3883 55.4496 33.6832C56.6101 31.3205 57.2749 28.859 56.9367 26.1935C56.3409 21.4876 52.8577 17.5379 48.224 16.3671C43.4523 15.1607 38.4442 16.921 35.6407 20.869C32.8995 24.7296 32.7977 28.8428 34.7198 33.0467C37.0638 38.1753 40.9491 42.0845 45.2415 45.8107Z" fill="white"/>
<path d="M50.1308 1.28873C53.2807 1.49278 56.0005 2.52594 58.2657 4.6538C58.4972 4.8708 58.7368 5.2303 58.7237 5.51207C58.7106 5.81328 58.466 6.18897 58.2066 6.3752C57.8143 6.65859 57.422 6.43512 57.0396 6.17116C56.0055 5.46187 55.0173 4.6036 53.87 4.15503C50.0749 2.66844 46.5803 3.33563 43.4747 5.9574C43.3811 6.03675 43.2974 6.12582 43.2039 6.20193C42.7393 6.576 42.1993 6.57277 41.8218 6.19545C41.4278 5.80194 41.4327 5.23192 41.8727 4.79469C43.1316 3.54129 44.6106 2.59395 46.3177 2.08871C47.5586 1.72111 48.8586 1.54783 50.1324 1.28711L50.1308 1.28873Z" fill="white"/>
<path d="M56.1308 8.2858C55.8665 8.60968 55.6974 9.00966 55.42 9.10521C55.1131 9.20885 54.6617 9.12302 54.3564 8.9627C53.5882 8.55948 52.9168 7.9344 52.1158 7.64129C49.9869 6.86399 48.0155 7.2915 46.2657 8.7117C46.2033 8.76352 46.1442 8.8202 46.0819 8.87202C45.5303 9.32706 44.9542 9.33516 44.5619 8.89469C44.1893 8.47527 44.2517 7.91658 44.7474 7.4502C45.7913 6.46562 47.0191 5.80491 48.4357 5.51666C51.1014 4.97579 53.4634 5.59763 55.4873 7.39514C55.7286 7.6089 55.8764 7.92792 56.1291 8.2858H56.1308Z" fill="white"/>
<path d="M50.1318 9.23145C51.1249 9.26221 52.0211 9.55855 52.7795 10.2063C53.2867 10.6403 53.354 11.2039 52.9682 11.6459C52.5989 12.0702 52.0736 12.0929 51.5435 11.7107C50.5225 10.9723 49.7904 10.9723 48.7563 11.7107C48.2245 12.0913 47.7041 12.0605 47.3332 11.6298C46.9491 11.1828 47.0246 10.6306 47.5383 10.195C48.2819 9.56503 49.1584 9.2703 50.1302 9.23306L50.1318 9.23145Z" fill="white"/>
<path d="M11.808 21.8162C14.1963 21.8194 16.171 23.7756 16.189 26.1529C16.2071 28.5333 14.1898 30.5446 11.7883 30.5381C9.41154 30.5333 7.42375 28.5625 7.40733 26.1933C7.39092 23.8064 9.39512 21.8113 11.808 21.8145V21.8162ZM14.2341 26.1982C14.2521 24.8995 13.1622 23.7821 11.8523 23.7562C10.5096 23.7303 9.37871 24.8169 9.36065 26.1496C9.34424 27.4435 10.4358 28.5657 11.7424 28.5997C13.0654 28.6337 14.216 27.5228 14.2341 26.1982Z" fill="white"/>
<path d="M23.6581 8.63641C23.727 6.18305 25.7493 4.28352 28.2115 4.35963C30.5505 4.4325 32.4825 6.46482 32.4283 8.79511C32.3725 11.195 30.3256 13.1431 27.9275 13.0783C25.5441 13.0152 23.5924 10.9845 23.6581 8.63479V8.63641ZM28.0128 6.29802C26.6997 6.31098 25.6098 7.40406 25.6049 8.71252C25.5999 10.0339 26.7391 11.1594 28.067 11.1415C29.3736 11.1254 30.4717 10.0209 30.4734 8.71899C30.475 7.38625 29.3555 6.28345 28.0128 6.2964V6.29802Z" fill="white"/>
<path d="M45.2399 34.3594C41.3463 34.3658 38.3688 31.4591 38.3524 27.6341C38.3359 23.9128 41.4383 20.8489 45.2251 20.8457C49.0135 20.8424 52.1208 23.8982 52.1126 27.6195C52.1044 31.4445 49.1383 34.3529 45.2382 34.3594H45.2399ZM45.2037 22.7857C42.4379 22.8002 40.3172 24.9378 40.3549 27.6713C40.3927 30.4081 42.4904 32.476 45.2316 32.4777C47.9893 32.4793 50.1231 30.353 50.11 27.6147C50.0985 24.8585 47.9761 22.7711 45.2037 22.7857Z" fill="white"/>
</svg>
