<svg width="100%" height="100%" viewBox="0 0 60 60" fill="none" xmlns="http://www.w3.org/2000/svg">
<path d="M0.00626223 58.8272C0.364775 58.1697 0.987867 58.19 1.59061 58.2511C2.10568 58.3027 2.33112 58.1305 2.48611 57.6201C3.1139 55.5708 3.79179 53.5356 4.46967 51.5019C4.57613 51.1826 4.54795 50.9931 4.28494 50.7505C2.18083 48.7998 2.0728 45.7751 4.01253 43.6867C4.58396 43.0698 5.07867 42.9775 5.51703 43.4033C5.91781 43.7947 5.84736 44.2972 5.30725 44.8781C4.42897 45.819 4.16752 46.9149 4.57926 48.1266C4.98474 49.3211 5.86145 50.0162 7.10137 50.2166C8.11116 50.3794 9.01449 50.0835 9.73464 49.3728C12.2192 46.9149 14.699 44.4507 17.1491 41.9567C18.3921 40.6902 18.3436 38.7536 17.1131 37.5293C15.8826 36.3035 13.9601 36.2753 12.6873 37.5106C11.2297 38.9243 9.80822 40.3755 8.37104 41.8111C8.25989 41.9223 8.15499 42.0381 8.03601 42.1399C7.60705 42.5063 7.13112 42.5078 6.7773 42.1509C6.43914 41.8096 6.43445 41.2851 6.81331 40.8922C7.54599 40.1329 8.2411 39.3235 9.05832 38.6659C10.162 37.7783 10.4579 36.7293 10.4438 35.3266C10.3718 27.5552 10.4094 19.7822 10.4094 12.0092V11.2624C9.42623 11.2655 8.33816 11.3657 7.89511 10.37C7.53973 9.57006 7.52408 8.61977 7.33934 7.64443C6.64267 7.56772 5.81605 7.46752 4.98631 7.38611C4.01879 7.29218 3.69159 6.70822 4.13934 5.85343C4.92368 4.36145 5.75186 2.90235 7.13112 1.85813C9.20392 0.289434 11.5225 -0.300781 14.0822 0.143837C15.6963 0.424072 17.2994 0.763798 18.9072 1.07535C19.3659 1.16458 19.7792 1.3822 19.7683 1.87691C19.7604 2.1728 19.5491 2.55637 19.308 2.72545C19.0966 2.87261 18.7053 2.82721 18.4109 2.77398C16.9534 2.50783 15.5006 2.21351 14.0477 1.92231C10.9025 1.29139 7.93738 2.63777 6.40157 5.40255C6.3546 5.48552 6.31703 5.57476 6.22936 5.75323C20.025 7.23425 33.7659 8.71057 47.5444 10.19V8.46635C46.3624 8.22995 45.1663 7.98572 43.9671 7.75245C38.8368 6.75206 33.7064 5.7548 28.5761 4.75754C26.6426 4.38181 24.7092 4.00607 22.7757 3.63034C22.6223 3.60059 22.4689 3.57085 22.3186 3.53171C21.7769 3.38768 21.4904 2.99002 21.5781 2.51253C21.6704 2.01312 22.1182 1.72036 22.6849 1.82838C25.672 2.40294 28.6591 2.98533 31.6446 3.56615C37.0426 4.61664 42.4391 5.67339 47.8403 6.70666C48.0563 6.74736 48.3694 6.63464 48.5464 6.48592C50.3718 4.95637 52.1831 3.40803 53.9898 1.855C54.4736 1.44012 54.9745 1.15206 55.6383 1.37593C56.3193 1.60607 56.5808 2.13523 56.6919 2.79276C57.6375 8.40842 58.2387 14.0491 57.8849 19.754C57.7096 22.5845 57.2884 25.379 56.4822 28.1047C56.2974 28.7278 55.8826 29.0096 55.3738 28.8734C54.8336 28.7278 54.6113 28.2675 54.7992 27.6115C56.2739 22.4702 56.4806 17.2225 56.0391 11.9387C55.8137 9.23817 55.4082 6.55323 55.081 3.86204C55.0622 3.71331 55.0137 3.56772 54.9604 3.34697C54.5518 3.69453 54.198 3.99668 53.8442 4.29883C52.4462 5.48865 51.0434 6.67222 49.6595 7.8777C49.4951 8.02173 49.3479 8.291 49.3479 8.50235C49.3338 17.7 49.337 26.8992 49.3385 36.0969C49.3385 36.1344 49.3511 36.1736 49.3792 36.327C49.6313 36.1156 49.8489 35.9466 50.0524 35.7618C51.3659 34.5642 52.3867 33.1442 53.2086 31.5755C53.3354 31.3344 53.4387 31.0745 53.6 30.8569C53.8739 30.4859 54.2512 30.3544 54.6818 30.5767C55.1201 30.8037 55.3017 31.1779 55.1154 31.6507C54.9667 32.0295 54.771 32.3927 54.5738 32.7513C53.2712 35.1184 51.5663 37.116 49.2556 38.561C48.8689 38.8021 48.4853 39.0542 48.0125 38.7724C47.571 38.5094 47.5741 38.0804 47.5741 37.6405C47.5773 29.3399 47.5757 21.0409 47.5757 12.7403C47.5757 12.507 47.5757 12.2753 47.5757 11.9607C44.4618 11.6272 41.3683 11.2953 38.1902 10.954C38.1902 11.9419 38.1902 12.8718 38.1902 13.8033C38.1902 15.682 37.4935 16.3755 35.6055 16.3771C35.3158 16.3771 35.0262 16.3771 34.6348 16.3771C35.9953 26.8976 37.3495 37.354 38.7147 47.9106C39.0231 47.9106 39.3268 47.9059 39.6289 47.9106C40.6747 47.9278 41.1648 48.4115 41.1788 49.4636C41.1914 50.4405 41.182 51.4158 41.182 52.3927C41.182 52.6025 41.182 52.8123 41.182 53.0769C41.7205 53.0769 42.1839 53.0738 42.6473 53.0769C43.8732 53.0879 44.5103 53.7282 44.5182 54.9697C44.526 56.0389 44.5182 57.1082 44.5182 58.2417C44.7796 58.2417 44.9878 58.2417 45.1961 58.2417C49.5906 58.2417 53.9835 58.2417 58.3781 58.2417C58.5143 58.2417 58.652 58.2479 58.7882 58.2417C59.2892 58.2135 59.7417 58.2949 59.9389 58.8319C60.1393 59.3798 59.8074 59.7086 59.4145 59.9998C39.6102 59.9998 19.8043 59.9998 0 59.9998C0 59.6084 0 59.2186 0 58.8288L0.00626223 58.8272ZM22.8211 47.909C24.1831 37.3775 25.5389 26.9055 26.901 16.3755C26.5017 16.3755 26.2121 16.3755 25.9225 16.3755C24.0375 16.3755 23.3456 15.682 23.3456 13.7955C23.3456 12.3348 23.3456 10.8726 23.3456 9.35558C20.5589 9.05813 17.8207 8.76537 15.0184 8.46635C15.0591 9.34776 15.1311 10.2354 14.3953 10.6957C13.7738 11.0839 12.9878 11.2107 12.216 11.4738V35.5834C14.3702 34.4718 15.8434 34.788 16.98 35.3172C20.0595 36.7513 20.764 40.77 18.3499 43.2405C16.1534 45.4886 13.9053 47.6882 11.6947 49.9254C11.5366 50.0851 11.3894 50.417 11.4473 50.6017C12.2098 53.0378 13.0082 55.4644 13.8113 57.8879C13.8567 58.0241 14.0117 58.2198 14.1197 58.2229C15.0685 58.2495 16.0203 58.2385 17.0129 58.2385C17.0129 57.08 17.0035 55.9904 17.016 54.8992C17.0285 53.7407 17.6876 53.091 18.8399 53.0769C19.3221 53.0706 19.8043 53.0769 20.3554 53.0769C20.3554 52.8029 20.3554 52.5931 20.3554 52.3834C20.3554 51.3673 20.3413 50.3528 20.3632 49.3368C20.382 48.4319 20.8939 47.9403 21.7988 47.9121C22.126 47.9012 22.4532 47.9106 22.8211 47.9106V47.909ZM18.7882 58.1931H42.735V54.882H18.7867V58.1931H18.7882ZM39.3957 49.6984H22.1589V53.0299H39.3957V49.6984ZM35.0935 44.1595C31.8325 42.8945 28.728 41.6906 25.5593 40.4616C25.2352 42.9634 24.9205 45.4057 24.5965 47.9074C25.7205 47.9074 26.7522 47.9231 27.7839 47.898C28.0626 47.8918 28.3647 47.8135 28.6105 47.682C30.4532 46.7004 32.2833 45.7 34.1166 44.7027C34.4015 44.5477 34.6833 44.3881 35.0935 44.1595ZM25.1037 9.54815C25.1037 9.81899 25.1037 10.0084 25.1037 10.1978C25.1037 11.408 25.1037 12.6182 25.1037 13.8268C25.1037 14.3528 25.3599 14.6164 25.8724 14.6174C28.097 14.6174 30.3217 14.6174 32.5464 14.6174C33.6579 14.6174 34.771 14.6331 35.8826 14.6002C36.0689 14.5939 36.4055 14.381 36.4086 14.2542C36.4493 13.1082 36.4321 11.9591 36.4321 10.7614C32.6512 10.356 28.9158 9.95519 25.1021 9.54658L25.1037 9.54815ZM6.18865 51.8777C5.50137 53.9959 4.82192 56.0906 4.13151 58.2198H12.0563C11.3174 55.9497 10.5925 53.7203 9.86772 51.4894C8.70816 51.8839 7.4818 52.0134 6.18865 51.8777ZM27.2704 39.2389C30.3295 40.4256 33.2477 41.556 36.2755 42.7301C35.9655 40.3317 35.6728 38.0789 35.3722 35.7556C32.6857 36.9109 30.0602 38.0397 27.2704 39.2389ZM25.8865 37.9207C28.5651 36.7669 31.1546 35.6522 33.8646 34.4859C31.4364 33.3164 29.135 32.208 26.7726 31.0699C26.472 33.3947 26.1855 35.6084 25.8865 37.9207ZM28.0579 29.7329C30.4156 30.8695 32.6779 31.9607 35.0293 33.0957C34.7303 30.799 34.4485 28.6307 34.1542 26.3732C32.0955 27.5082 30.137 28.5869 28.0579 29.7329ZM27.9828 21.6969C27.6978 23.9199 27.4301 26.0053 27.1452 28.2315C29.182 27.1059 31.0716 26.0616 33.0395 24.9736C31.3158 23.8558 29.7017 22.81 27.9828 21.6969ZM28.8876 20.1877C30.544 21.2616 32.1127 22.2761 33.7675 23.3485C33.4747 21.0926 33.1945 18.9446 32.9017 16.6902C31.5225 17.8925 30.2325 19.0151 28.8876 20.1877ZM36.6152 45.343C35.0575 46.1916 33.5921 46.9884 32.1268 47.7869C32.144 47.8151 32.1597 47.8432 32.1769 47.8698H36.9377C36.8328 47.0417 36.7327 46.2542 36.6168 45.343H36.6152ZM9.2728 7.84325C9.2728 8.28944 9.28533 8.67613 9.26967 9.06126C9.25558 9.39785 9.40431 9.50118 9.72525 9.49492C10.5644 9.48083 11.4035 9.49022 12.2426 9.49022C12.967 9.49022 13.3046 9.13275 13.2556 8.41781C13.2524 8.38337 13.2211 8.35206 13.1741 8.26752C11.917 8.13132 10.627 7.99042 9.27437 7.84325H9.2728ZM30.4015 16.5336C30.3828 16.4929 30.364 16.4538 30.3452 16.4131C29.899 16.4131 29.4512 16.3943 29.0082 16.4256C28.8783 16.435 28.6685 16.5697 28.6481 16.6761C28.5589 17.1379 28.526 17.6107 28.4556 18.2291C29.1867 17.592 29.7957 17.0628 30.4031 16.5336H30.4015Z" fill="white"/>
</svg>
