<svg width="100%" height="100%" viewBox="0 0 60 58" fill="none" xmlns="http://www.w3.org/2000/svg">
<mask id="mask0_1602_216" style="mask-type:luminance" maskUnits="userSpaceOnUse" x="0" y="0" width="60" height="58">
<path d="M60 0H0V57.7861H60V0Z" fill="white"/>
</mask>
<g mask="url(#mask0_1602_216)">
<path d="M0 3.26305C0.0594958 3.07986 0.120557 2.89668 0.180053 2.71349C0.692031 1.12433 2.1121 0.051839 3.77016 0.0017372C5.34836 -0.0467989 6.85455 0.925488 7.41976 2.4442C7.59198 2.90764 7.81901 3.00784 8.26523 2.99845C9.61171 2.97183 10.9598 3.00001 12.3062 2.98279C12.7666 2.97653 13.122 3.11274 13.4523 3.4431C16.4396 6.44607 19.4395 9.43809 22.4346 12.4348C22.5035 12.5037 22.574 12.571 22.6366 12.6462C22.9811 13.0627 22.9717 13.5746 22.6178 13.9066C22.2655 14.2369 21.8005 14.2494 21.406 13.8925C20.9723 13.4995 20.5715 13.0705 20.1566 12.6571C17.6437 10.1458 15.137 7.62816 12.6069 5.13247C12.4002 4.92893 12.0463 4.78176 11.7567 4.77236C10.5276 4.73322 9.29701 4.75984 8.06795 4.75201C7.79396 4.75044 7.6186 4.78489 7.49491 5.09802C6.79662 6.86098 5.37655 7.80195 3.61672 7.71114C1.94144 7.62503 0.648192 6.5134 0.0986378 4.69095C0.0829811 4.63928 0.0360106 4.59701 0.00313136 4.5516C0.00313136 4.1226 0.00313136 3.69204 0.00313136 3.26305H0ZM3.85001 5.95445C4.98669 5.95758 5.93863 5.0213 5.95585 3.88462C5.9715 2.76046 5.02583 1.78974 3.89228 1.76469C2.74151 1.73964 1.75826 2.71193 1.76296 3.87053C1.76765 5.01191 2.70706 5.95132 3.84844 5.95445H3.85001Z" fill="white"/>
<path d="M11.7238 29.3704C10.9097 29.3062 10.1769 29.325 9.47863 29.1794C7.3086 28.7301 5.7711 26.9577 5.59887 24.7564C5.55034 24.1363 5.54251 23.5054 5.59105 22.8854C5.6615 21.9914 6.28151 21.4136 7.17865 21.4136C8.01472 21.4136 8.88837 21.3541 9.67591 21.5718C10.5511 21.8129 11.3481 22.3358 12.2233 22.757C12.4237 22.53 12.7086 22.1323 13.0656 21.8191C14.3589 20.6856 15.9136 20.7733 17.4526 21.0159C18.021 21.1052 18.4077 21.6109 18.4703 22.1871C18.5752 23.1562 18.6269 24.1426 18.1916 25.0648C17.5121 26.5037 16.3708 27.263 14.78 27.3303C14.3745 27.3476 13.9674 27.3335 13.4836 27.3335C13.4836 28.0725 13.4836 28.7473 13.4836 29.4236C13.4836 30.1 13.4836 30.778 13.4836 31.5514C14.0849 31.2179 14.6109 30.9345 15.1292 30.6402C19.6258 28.0897 24.1193 25.5314 28.6238 22.995C28.9886 22.7899 29.1013 22.5628 29.0919 22.1683C29.0684 21.1741 29.0841 20.1799 29.0841 19.0996C28.6426 19.0996 28.2402 19.1074 27.8378 19.0996C26.2486 19.0667 25.0697 17.977 24.9147 16.3909C24.8802 16.0418 24.8771 15.6879 24.8974 15.3372C24.9569 14.3007 25.577 13.6776 26.6072 13.6244C27.0753 13.6009 27.5466 13.5978 28.0132 13.6244C29.2845 13.7027 30.1519 14.3775 30.6325 15.4061C31.5422 15.3482 32.3877 15.2511 33.2347 15.2511C34.3886 15.2511 35.0462 15.9384 35.0446 17.0861C35.0446 17.5714 35.0493 18.0709 34.9382 18.5375C34.625 19.8401 33.504 20.6997 32.17 20.7279C31.7614 20.7357 31.3512 20.7279 30.8533 20.7279C30.8533 21.315 30.8376 21.8755 30.8674 22.4313C30.8736 22.5456 31.0302 22.6865 31.1508 22.7554C35.5785 25.2699 40.011 27.7766 44.4418 30.2832C44.4575 30.2926 44.4794 30.291 44.5561 30.3067V20.0421C43.493 20.0421 42.4346 20.1298 41.3966 20.0264C38.0257 19.6914 35.4517 16.8622 35.3781 13.485C35.3625 12.7429 35.3593 12.0008 35.3797 11.2586C35.4 10.504 35.8463 9.92782 36.579 9.91373C38.0194 9.88711 39.4724 9.87302 40.9003 10.0327C42.3344 10.1924 43.5197 10.9862 44.5796 12.0571C44.6845 11.5107 44.7597 11.0222 44.874 10.5431C45.8102 6.63676 49.2046 3.79505 53.2222 3.59621C54.5671 3.53045 55.9167 3.5555 57.2648 3.57585C58.1149 3.58838 58.7475 4.10662 58.8023 4.88946C58.9651 7.26773 58.7365 9.57397 57.3618 11.6281C57.2428 11.8066 57.1207 11.9835 56.9908 12.1542C56.604 12.6646 56.1093 12.7836 55.6803 12.4767C55.245 12.1652 55.1761 11.65 55.5629 11.1365C56.8405 9.43619 57.2037 7.51041 57.0424 5.44528C57.008 5.41553 56.9798 5.36856 56.9516 5.36856C55.4126 5.3983 53.8469 5.26052 52.3423 5.50164C48.9369 6.04963 46.4788 9.04008 46.3895 12.4908C46.377 12.9777 46.388 13.4662 46.388 14.0455C46.7309 14.0455 47.055 14.0581 47.3759 14.044C48.6989 13.986 50.0235 13.9469 51.3418 13.8389C51.7755 13.8029 52.1998 13.5915 52.6194 13.4381C53.2738 13.1985 53.731 13.3378 53.9455 13.8624C54.1506 14.3618 53.9236 14.8879 53.2629 15.0679C52.1418 15.3717 51.0005 15.6598 49.8497 15.7803C48.7114 15.9009 47.5513 15.8069 46.3739 15.8069V22.0884C47.9364 20.8656 49.6696 21.1083 51.3527 21.1208C52.4018 21.1287 53.0406 21.827 53.0844 22.8697C53.1408 24.2052 52.9967 25.486 52.1262 26.5804C51.2369 27.6983 50.0877 28.3183 48.6519 28.359C47.9317 28.3793 47.2115 28.3621 46.3958 28.3621C46.3958 29.3657 46.3801 30.3302 46.4146 31.2931C46.4193 31.4183 46.6698 31.5592 46.8311 31.65C50.8001 33.9062 54.7706 36.1576 58.7443 38.406C59.344 38.7457 59.9922 39.0401 60 39.8714C60.0094 40.7044 59.3675 41.0128 58.7709 41.3573C57.6891 41.9804 56.615 42.6176 55.5315 43.2392C54.8974 43.604 54.3933 43.5132 54.1146 43.0075C53.8516 42.53 54.0332 42.079 54.6485 41.7174C55.6568 41.124 56.6667 40.5368 57.7736 39.8918C53.969 37.7343 50.238 35.6159 46.4162 33.449C46.4021 33.7277 46.3833 33.9281 46.3833 34.1285C46.3801 35.6911 46.4068 37.2536 46.3614 38.8162C46.352 39.159 46.1766 39.6068 45.9214 39.8119C45.3687 40.255 44.6344 39.7822 44.6235 39.0009C44.6031 37.6341 44.6172 36.2672 44.6156 34.8988C44.6156 34.1958 44.625 33.4928 44.6125 32.7899C44.6031 32.256 43.504 31.6172 43.039 31.8786C39.3878 33.9422 35.7398 36.012 32.0918 38.0819C32.026 38.1194 31.9728 38.1774 31.8757 38.2556C33.3584 39.098 34.8129 39.9278 36.2674 40.7513C39.4755 42.5691 42.6898 44.3759 45.887 46.214C46.3034 46.4536 46.5915 46.4316 46.9861 46.1905C48.2339 45.428 49.5037 44.7 50.775 43.9735C51.4686 43.5774 52.1935 43.8952 52.2295 44.5998C52.2546 45.0726 51.9508 45.3372 51.5735 45.5548C49.3956 46.8168 47.2225 48.085 45.0462 49.3516C40.4086 52.0509 35.7648 54.7391 31.1414 57.4603C30.3946 57.9002 29.7808 57.9018 29.0293 57.4634C19.7667 52.0462 10.4885 46.6524 1.21497 41.2524C1.09754 41.1835 0.975421 41.1193 0.861126 41.0457C-0.0923733 40.4351 -0.089242 39.2921 0.886177 38.7207C2.09801 38.0114 3.32551 37.3272 4.55143 36.6414C5.14483 36.3095 5.65994 36.4144 5.91671 36.8966C6.15939 37.3523 5.98247 37.847 5.43448 38.1633C4.45593 38.7285 3.46955 39.2796 2.41272 39.8793C2.64757 40.0296 2.82762 40.1564 3.01707 40.266C6.42242 42.2497 9.83091 44.2303 13.2331 46.2171C13.5196 46.3847 13.7514 46.4661 14.0833 46.2751C18.6927 43.6463 23.3114 41.0332 27.927 38.4154C28.0069 38.3699 28.0789 38.3089 28.212 38.2165C26.7778 37.4024 25.3891 36.6148 24.0019 35.8273C21.7285 34.5372 19.4504 33.2533 17.1833 31.9507C16.8953 31.7847 16.6823 31.7706 16.3927 31.9444C15.5738 32.436 14.7424 32.9089 13.897 33.3551C13.5729 33.5257 13.4711 33.7308 13.4742 34.0878C13.4899 36.0997 13.504 38.1116 13.4602 40.1219C13.4523 40.4523 13.2394 40.9001 12.9764 41.0801C12.3971 41.4747 11.7285 40.9658 11.7238 40.1673C11.7129 38.5077 11.7207 36.8465 11.7207 35.1869C11.7207 35.0319 11.7207 34.8785 11.7207 34.6045C11.0803 34.9646 10.512 35.2856 9.9452 35.605C9.70722 35.7396 9.47393 35.8805 9.22969 36.0042C8.69736 36.2735 8.21669 36.1608 7.96149 35.7161C7.70158 35.2621 7.84093 34.783 8.3623 34.4792C9.28918 33.9391 10.2192 33.402 11.168 32.901C11.5751 32.6865 11.7614 32.4407 11.7348 31.9538C11.6878 31.1005 11.7222 30.2425 11.7222 29.3735L11.7238 29.3704ZM44.6219 47.5495C44.5045 47.4603 44.4606 47.4196 44.4105 47.3914C39.7291 44.736 35.0431 42.0869 30.3679 39.419C30.0673 39.2467 29.8747 39.3297 29.6289 39.4691C27.0189 40.9549 24.4058 42.4344 21.7927 43.9156C19.7072 45.0977 17.6233 46.2813 15.5002 47.4869C15.6552 47.5918 15.7617 47.6732 15.876 47.7405C20.4932 50.4304 25.1151 53.114 29.7244 55.8179C30.0438 56.0058 30.2458 55.9275 30.512 55.7709C33.3913 54.0878 36.2752 52.4125 39.1561 50.7341C40.9566 49.6851 42.7556 48.6361 44.6203 47.5495H44.6219ZM18.5909 30.7044C18.8023 30.8312 18.9322 30.9142 19.0653 30.9893C22.5615 32.9715 26.0608 34.9442 29.546 36.9436C29.9233 37.1597 30.1863 37.1425 30.5496 36.9342C34.0207 34.9489 37.5027 32.984 40.9801 31.0112C41.1414 30.9204 41.2917 30.8093 41.5109 30.6652C37.9443 28.6439 34.4465 26.6634 30.8486 24.6248C30.8486 24.9677 30.8486 25.1775 30.8486 25.3858C30.8486 27.1049 30.8533 28.8224 30.8455 30.5415C30.8423 31.1882 30.5151 31.5796 29.9969 31.5937C29.4645 31.6093 29.0919 31.1882 29.0872 30.5275C29.0778 29.2389 29.0841 27.9503 29.0841 26.6602C29.0841 26.0621 29.0841 25.464 29.0841 24.7501C25.5378 26.762 22.0902 28.7175 18.5878 30.7044H18.5909ZM37.1771 11.589C37.0722 13.2486 37.0456 14.7767 38.0022 16.131C39.1827 17.8016 40.8423 18.3934 42.8261 18.3527C44.7612 18.3136 44.7612 18.3449 44.5937 16.3941C44.3902 14.044 42.8777 12.1918 40.6325 11.7769C39.5178 11.5702 38.3498 11.6438 37.1771 11.5905V11.589ZM46.449 26.6007C47.0659 26.6007 47.6483 26.6007 48.2308 26.6007C50.3711 26.596 51.6111 25.1024 51.2525 22.8744C50.6858 22.8744 50.1065 22.8744 49.5272 22.8744C47.3149 22.8791 46.1077 24.3086 46.449 26.6007ZM11.6674 27.4806C12.0933 24.5497 10.2098 22.6771 7.39471 23.2298C6.89213 26.0887 8.77877 27.9676 11.6674 27.4806ZM16.7042 22.7163C14.4747 22.3202 13.0797 23.5727 13.5729 25.5298C15.9386 25.7881 17.0252 24.8127 16.7042 22.7163ZM30.9128 18.9383C33.2237 19.2358 33.4899 18.2102 33.2003 17.0454C31.2964 16.8403 30.6811 17.3397 30.9128 18.9383ZM29.0418 17.2928C29.2234 15.6598 28.5596 15.1384 26.7387 15.4484C26.4741 16.7792 26.9109 17.5793 29.0418 17.2928Z" fill="white"/>
<path d="M7.62056 13.277C9.1424 13.277 10.6643 13.2754 12.1861 13.2785C12.399 13.2785 12.6198 13.2785 12.8249 13.3286C13.2586 13.4335 13.5514 13.7545 13.4528 14.1741C13.3807 14.4794 13.0958 14.7737 12.8327 14.9788C12.6793 15.0978 12.3818 15.0477 12.1485 15.0477C9.10483 15.0509 6.06115 15.0493 3.01746 15.0493C2.97832 15.0493 2.93918 15.0493 2.90004 15.0493C2.1125 15.0399 1.69446 14.7393 1.68663 14.1741C1.67881 13.6057 2.09997 13.2816 2.87812 13.2785C4.45789 13.2738 6.03923 13.2785 7.619 13.2785L7.62056 13.277Z" fill="white"/>
<path d="M7.59075 18.7173C6.02977 18.7173 4.46879 18.7204 2.9078 18.7142C2.69644 18.7142 2.47411 18.7017 2.27683 18.6343C1.85566 18.4919 1.65369 18.1631 1.70379 17.7262C1.7539 17.2941 2.01223 17.0201 2.46158 16.9638C2.57744 16.9497 2.69487 16.9528 2.8123 16.9528C5.99376 16.9528 9.17366 16.9497 12.3551 16.9575C12.5822 16.9575 12.9047 16.9465 13.0159 17.0812C13.2288 17.338 13.4574 17.7043 13.4355 18.0081C13.3979 18.5279 12.9485 18.7158 12.4507 18.7158C10.8302 18.7173 9.21123 18.7158 7.59075 18.7158V18.7173Z" fill="white"/>
<path d="M10.191 11.3702C9.43169 11.3702 8.67233 11.378 7.91298 11.367C7.31332 11.3592 6.93756 11.032 6.92034 10.5294C6.90155 10.0017 7.28514 9.6182 7.90672 9.61193C9.42543 9.59628 10.9441 9.59784 12.4613 9.61037C13.1032 9.61506 13.4774 9.96108 13.4805 10.4934C13.4837 11.0257 13.1079 11.3592 12.4691 11.367C11.7098 11.3764 10.9504 11.3686 10.191 11.3686V11.3702Z" fill="white"/>
<path d="M3.59746 11.3649C3.24675 11.3649 2.89447 11.3758 2.54376 11.3618C2.03491 11.343 1.739 11.0471 1.69829 10.5617C1.65759 10.0685 1.93315 9.68807 2.41538 9.64893C3.19039 9.5863 3.97636 9.5863 4.75137 9.6458C5.23047 9.68337 5.51855 10.0528 5.48411 10.5476C5.44966 11.0314 5.15688 11.3351 4.65117 11.3602C4.30045 11.3774 3.94974 11.3633 3.59746 11.3649Z" fill="white"/>
<path d="M29.0856 49.5509C28.6206 49.5509 28.2339 49.5571 27.8471 49.5509C26.2721 49.5196 25.079 48.4173 24.9146 46.8469C24.899 46.6919 24.8927 46.5354 24.8911 46.3804C24.8692 44.6158 25.4172 44.0819 27.1708 44.0506C28.3043 44.0303 29.3549 44.1712 30.1643 45.1122C31.1773 44.3544 32.3297 44.5062 33.4476 44.5642C34.1615 44.6018 34.6375 45.156 34.7252 45.8715C34.9632 47.8396 34.0081 49.3113 32.3203 49.5258C31.8631 49.5837 31.3918 49.5352 30.8485 49.5352C30.8485 50.1975 30.8548 50.7956 30.847 51.3937C30.8376 52.045 30.5229 52.4286 30.0015 52.4458C29.4676 52.463 29.0997 52.0466 29.0887 51.3874C29.0778 50.805 29.0872 50.221 29.0872 49.554L29.0856 49.5509ZM26.7402 45.87C26.3879 47.4435 27.2647 48.0744 29.0527 47.6971C29.1952 46.0829 28.6112 45.6194 26.7402 45.87ZM30.8877 47.7347C32.5379 47.9445 33.208 47.4623 32.8714 46.3365C31.2885 46.1659 30.7875 46.5103 30.8877 47.7347Z" fill="white"/>
</g>
</svg>
