<svg width="100%" height="100%" viewBox="0 0 68 68" fill="none" xmlns="http://www.w3.org/2000/svg">
<path d="M48.1667 17C48.1667 17.9935 47.9962 18.9471 47.683 19.8333L56.6667 19.8333C58.2315 19.8333 59.5 21.1019 59.5 22.6667V31.6503C58.6138 31.3371 57.6601 31.1667 56.6667 31.1667C51.9722 31.1667 48.1667 34.9722 48.1667 39.6667C48.1667 44.3611 51.9722 48.1667 56.6667 48.1667C57.6601 48.1667 58.6138 47.9962 59.5 47.683V56.6667C59.5 58.2315 58.2315 59.5 56.6667 59.5H22.6667C21.1019 59.5 19.8333 58.2315 19.8333 56.6667V47.683C18.9471 47.9962 17.9935 48.1667 17 48.1667C12.3056 48.1667 8.5 44.3611 8.5 39.6667C8.5 34.9722 12.3056 31.1667 17 31.1667C17.9935 31.1667 18.9471 31.3371 19.8333 31.6503V22.6667C19.8333 21.1019 21.1019 19.8333 22.6667 19.8333L31.6503 19.8333C31.3371 18.9471 31.1667 17.9935 31.1667 17C31.1667 12.3056 34.9722 8.5 39.6667 8.5C44.3611 8.5 48.1667 12.3056 48.1667 17Z" stroke="#6C757D" stroke-width="4" stroke-linecap="round" stroke-linejoin="round"/>
</svg>
