<svg width="100%" height="100%" viewBox="0 0 47 58" fill="none" xmlns="http://www.w3.org/2000/svg">
<path fill-rule="evenodd" clip-rule="evenodd" d="M7.15 0H24.6703V17.3223L24.6703 17.3747V17.3747C24.6702 17.8897 24.6702 18.3626 24.7025 18.758C24.7373 19.1843 24.8171 19.6506 25.0518 20.1112C25.3873 20.7698 25.9228 21.3052 26.5813 21.6408C27.0419 21.8755 27.5083 21.9552 27.9345 21.99C28.3299 22.0223 28.8029 22.0223 29.3178 22.0223L29.3703 22.0223H46.6916V50.8395V50.8726C46.6916 51.9647 46.6916 52.8302 46.6346 53.5278C46.5764 54.2412 46.4547 54.8448 46.1739 55.396C45.7185 56.2898 44.9919 57.0164 44.0981 57.4718C43.5469 57.7526 42.9433 57.8743 42.2299 57.9325C41.5323 57.9895 40.6668 57.9895 39.5746 57.9895H39.5416H7.15H7.11698C6.02484 57.9895 5.15935 57.9895 4.46173 57.9325C3.74834 57.8743 3.14472 57.7526 2.59355 57.4718C1.69978 57.0164 0.973118 56.2898 0.517719 55.396C0.236882 54.8448 0.115274 54.2412 0.0569878 53.5278C-1.01426e-05 52.8302 -5.61265e-06 51.9647 0 50.8725V50.8395V7.15001V7.11701V7.117C-5.61266e-06 6.02486 -1.0062e-05 5.15936 0.0569878 4.46174C0.115274 3.74835 0.236882 3.14472 0.517719 2.59355C0.973118 1.69978 1.69978 0.973118 2.59355 0.517719C3.14472 0.236882 3.74835 0.115274 4.46173 0.0569878C5.15935 -1.00523e-05 6.02485 -5.60809e-06 7.117 0H7.117H7.15ZM46.1191 18.3281C46.2399 18.5512 46.3424 18.7833 46.4259 19.0223H29.3703C28.7855 19.0223 28.4371 19.0211 28.1788 19C28.0212 18.9871 27.955 18.9701 27.9372 18.9646C27.8479 18.9176 27.775 18.8446 27.7279 18.7553C27.7224 18.7376 27.7054 18.6713 27.6926 18.5137C27.6715 18.2554 27.6703 17.9071 27.6703 17.3223V0.0219717C27.9515 0.0399002 28.2017 0.0723945 28.4468 0.131243C28.9315 0.247603 29.3948 0.439523 29.8198 0.699959C30.3001 0.994297 30.7051 1.39941 31.3335 2.02803L31.3996 2.09419L37.9985 8.6931C38.0121 8.70667 38.0251 8.72076 38.0376 8.73534L44.9703 16.8235L45.0247 16.8869C45.5432 17.4916 45.8774 17.8815 46.1191 18.3281ZM27.932 18.9628L27.9351 18.9639L27.9332 18.9633C27.9324 18.963 27.932 18.9628 27.932 18.9628ZM27.7297 18.7605C27.7297 18.7605 27.7296 18.7603 27.7295 18.7599L27.7286 18.7575L27.7297 18.7605ZM23.3458 27.4958C24.1742 27.4958 24.8458 28.1673 24.8458 28.9958V35.9689H31.8192C32.6476 35.9689 33.3192 36.6405 33.3192 37.4689C33.3192 38.2973 32.6476 38.9689 31.8192 38.9689H24.8458V45.9426C24.8458 46.7711 24.1742 47.4426 23.3458 47.4426C22.5174 47.4426 21.8458 46.7711 21.8458 45.9426V38.9689H14.8724C14.0439 38.9689 13.3724 38.2973 13.3724 37.4689C13.3724 36.6405 14.0439 35.9689 14.8724 35.9689H21.8458V28.9958C21.8458 28.1673 22.5174 27.4958 23.3458 27.4958Z" fill="white"/>
</svg>
