<svg width="100%" height="100%" viewBox="0 0 62 70" fill="none" xmlns="http://www.w3.org/2000/svg">
<path d="M4.37696 2.87609L59.4824 33.4902C60.3044 33.9469 60.7153 34.1752 60.8517 34.4761C60.9706 34.7385 60.9706 35.0393 60.8517 35.3016C60.7153 35.6026 60.3044 35.8309 59.4824 36.2875L4.37696 66.9017C3.31772 67.4902 2.7881 67.7844 2.4265 67.7112C2.11276 67.6476 1.84839 67.4378 1.71537 67.1466C1.56208 66.811 1.72856 66.2285 2.06152 65.0634L7.57607 45.7673C7.86779 44.7466 8.01365 44.2362 8.29671 43.8281C8.54707 43.4672 8.87361 43.1657 9.25328 42.9449C9.68256 42.6952 10.2029 42.5904 11.2436 42.3808L11.2437 42.3808L48.4444 34.8889L11.2437 27.397L11.2436 27.397C10.2029 27.1874 9.68256 27.0826 9.25328 26.8329C8.87361 26.6121 8.54707 26.3105 8.29671 25.9496C8.01365 25.5416 7.86779 25.0312 7.57607 24.0105L2.06152 4.7144C1.72856 3.54931 1.56208 2.96677 1.71537 2.6312C1.84839 2.34002 2.11276 2.13013 2.4265 2.0666C2.7881 1.99339 3.31772 2.28762 4.37696 2.87609Z" fill="white" stroke="white" stroke-width="1.5" stroke-linejoin="round"/>
<path d="M2.35079 1.75044L59.4824 33.4902C60.3044 33.9469 60.7153 34.1752 60.8517 34.4761C60.9706 34.7385 60.9706 35.0393 60.8517 35.3016C60.7153 35.6026 60.3044 35.8309 59.4824 36.2875L2.35079 68.0273L2.3507 68.0274C1.92706 68.2627 1.71523 68.3804 1.5706 68.3511C1.4451 68.3257 1.33935 68.2418 1.28615 68.1253C1.22483 67.9911 1.29142 67.758 1.42461 67.292L7.30842 46.7039C7.69738 45.3429 7.89185 44.6624 8.26927 44.1183C8.60308 43.6371 9.03847 43.2351 9.5447 42.9406C10.1171 42.6076 10.8109 42.4679 12.1985 42.1885L48.4444 34.8889L12.1985 27.5893L12.1985 27.5893C10.8109 27.3099 10.1171 27.1701 9.5447 26.8372C9.03847 26.5427 8.60308 26.1407 8.26927 25.6595C7.89185 25.1154 7.69738 24.4349 7.30842 23.0739L1.42461 2.48576C1.29142 2.01972 1.22483 1.78671 1.28615 1.65248C1.33935 1.53601 1.4451 1.45205 1.5706 1.42664C1.71524 1.39735 1.92709 1.51505 2.35079 1.75044Z" fill="white" stroke="white" stroke-width="1.5" stroke-linejoin="round"/>
</svg>
