<svg width="100%" height="100%" viewBox="0 0 68 68" fill="none" xmlns="http://www.w3.org/2000/svg">
<path d="M33.9997 45.3337C40.2589 45.3337 45.333 40.2596 45.333 34.0003C45.333 27.7411 40.2589 22.667 33.9997 22.667C27.7404 22.667 22.6663 27.7411 22.6663 34.0003C22.6663 40.2596 27.7404 45.3337 33.9997 45.3337Z" stroke="white" stroke-width="4" stroke-linecap="round" stroke-linejoin="round"/>
<path d="M54.3064 22.4973L54.1201 22.1747C53.6061 21.285 53.3438 20.2723 53.3611 19.2449L53.4459 14.2049C53.4632 13.1749 52.9201 12.2167 52.0276 11.7024L44.2737 7.23418C43.3834 6.72115 42.2851 6.73034 41.4035 7.25821L37.0994 9.83537C36.2198 10.3621 35.2137 10.6403 34.1884 10.6403H33.8152C32.7877 10.6403 31.7795 10.3609 30.8985 9.83199L26.5746 7.23617C25.6899 6.70506 24.5865 6.69689 23.694 7.21486L15.9647 11.7009C15.0765 12.2164 14.5368 13.1722 14.5541 14.199L14.639 19.2449C14.6562 20.2723 14.3939 21.285 13.8799 22.1747L13.6961 22.493C13.1819 23.3832 12.4352 24.1167 11.536 24.615L7.13045 27.0564C6.22747 27.5568 5.66813 28.5087 5.67048 29.5411L5.69076 38.4712C5.69309 39.4973 6.25 40.442 7.14668 40.9408L11.531 43.3798C12.4333 43.8818 13.1813 44.6207 13.6942 45.5168L13.8912 45.8609C14.3979 46.7462 14.6563 47.7518 14.6391 48.7716L14.5542 53.7955C14.5369 54.8255 15.0799 55.7839 15.9725 56.2982L23.7263 60.7663C24.6166 61.2794 25.7149 61.2702 26.5965 60.7423L30.9006 58.1652C31.7803 57.6384 32.7864 57.3602 33.8117 57.3602H34.1848C35.2124 57.3602 36.2206 57.6396 37.1015 58.1685L41.4254 60.7644C42.3101 61.2955 43.4136 61.3036 44.306 60.7857L52.0353 56.2997C52.9235 55.7842 53.4632 54.8284 53.446 53.8015L53.3611 48.7556C53.3438 47.7283 53.6061 46.7156 54.1201 45.8258L54.3039 45.5076C54.8182 44.6174 55.5649 43.8838 56.4641 43.3855L60.8696 40.9441C61.7725 40.4437 62.3319 39.4918 62.3295 38.4595L62.3093 29.5293C62.3069 28.5032 61.75 27.5586 60.8533 27.0597L56.4585 24.6148C55.5628 24.1166 54.8191 23.3847 54.3064 22.4973Z" stroke="white" stroke-width="4" stroke-linecap="round" stroke-linejoin="round"/>
</svg>
