<svg width="100%" height="100%" viewBox="0 0 39 33" fill="none" xmlns="http://www.w3.org/2000/svg">
<path d="M14.9724 16.0489C14.9724 13.7697 16.8201 11.9221 19.0993 11.9221C21.3785 11.9221 23.2262 13.7697 23.2262 16.0489C23.2262 18.3281 21.3785 20.1758 19.0993 20.1758C16.8201 20.1758 14.9724 18.3281 14.9724 16.0489Z" fill="white"/>
<path fill-rule="evenodd" clip-rule="evenodd" d="M8.73946 4.30243C11.6219 1.94237 15.1725 0 19.0993 0C23.0262 0 26.5768 1.94237 29.4592 4.30243C32.3573 6.67538 34.7271 9.5902 36.3195 11.8084L36.4509 11.991C37.4095 13.3231 38.1986 14.4196 38.1986 16.0489C38.1986 17.6783 37.4095 18.7748 36.4509 20.1069L36.3195 20.2895C34.7271 22.5077 32.3573 25.4225 29.4592 27.7955C26.5768 30.1555 23.0262 32.0979 19.0993 32.0979C15.1725 32.0979 11.6219 30.1555 8.73946 27.7955C5.8413 25.4225 3.47153 22.5077 1.87911 20.2895L1.74777 20.1069C0.789126 18.7748 0 17.6783 0 16.0489C0 14.4196 0.789127 13.3231 1.74777 11.991L1.87911 11.8084C3.47153 9.5902 5.8413 6.67538 8.73946 4.30243ZM19.0993 9.17082C15.3006 9.17082 12.2212 12.2503 12.2212 16.0489C12.2212 19.8476 15.3006 22.9271 19.0993 22.9271C22.898 22.9271 25.9774 19.8476 25.9774 16.0489C25.9774 12.2503 22.898 9.17082 19.0993 9.17082Z" fill="white"/>
</svg>
