<svg width="100%" height="100%" viewBox="0 0 57 54" fill="none" xmlns="http://www.w3.org/2000/svg">
<path d="M25.6835 3.222C26.5994 1.52389 27.0573 0.674838 27.6654 0.39562C28.1952 0.152341 28.8048 0.152341 29.3346 0.39562C29.9427 0.674838 30.4006 1.52389 31.3165 3.22201L37.4371 14.5703C37.6013 14.8747 37.6834 15.027 37.7983 15.1458C37.9001 15.2511 38.0203 15.3369 38.153 15.3989C38.3028 15.4689 38.4735 15.497 38.8148 15.5533L52.1735 17.7549C54.3474 18.1132 55.4343 18.2923 55.9053 18.8241C56.3147 19.2862 56.4877 19.9116 56.374 20.5184C56.2432 21.2166 55.4029 21.9289 53.7221 23.3534L43.5389 31.9846C43.1909 32.2796 43.0169 32.4271 42.9121 32.6106C42.8194 32.7728 42.7659 32.9544 42.7558 33.1409C42.7444 33.3519 42.8106 33.5702 42.943 34.0067L47.1939 48.0183C47.9455 50.4959 48.3214 51.7347 48.0076 52.4224C47.7356 53.0184 47.189 53.4434 46.5444 53.5601C45.8006 53.6947 44.6926 53.0252 42.4767 51.6861L29.493 43.8401C29.1321 43.622 28.9517 43.5129 28.7589 43.4703C28.5883 43.4327 28.4117 43.4327 28.2411 43.4703C28.0483 43.5129 27.8679 43.622 27.507 43.8401L14.5233 51.6861C12.3074 53.0252 11.1994 53.6947 10.4556 53.5601C9.811 53.4434 9.2644 53.0184 8.99242 52.4224C8.67861 51.7347 9.05445 50.4959 9.80612 48.0183L14.057 34.0067C14.1894 33.5702 14.2556 33.3519 14.2442 33.1409C14.2341 32.9544 14.1806 32.7728 14.0879 32.6106C13.9831 32.4271 13.8091 32.2796 13.4611 31.9846L3.27785 23.3534C1.59713 21.9289 0.756775 21.2166 0.626001 20.5184C0.512338 19.9116 0.685318 19.2862 1.0947 18.8241C1.5657 18.2923 2.65265 18.1132 4.82654 17.7549L18.1852 15.5533C18.5265 15.497 18.6972 15.4689 18.847 15.3989C18.9797 15.3369 19.0999 15.2511 19.2017 15.1458C19.3166 15.027 19.3987 14.8747 19.5629 14.5703L25.6835 3.222Z" fill="white"/>
</svg>
