<svg width="100%" height="100%" viewBox="0 0 20 20" fill="none" xmlns="http://www.w3.org/2000/svg">
<path d="M6.53726 1.46191H13.0012C13.2597 1.46191 13.5075 1.56457 13.6902 1.7473L18.2531 6.31019C18.4358 6.49292 18.5385 6.74075 18.5385 6.99917V13.4632C18.5385 13.7216 18.4358 13.9694 18.2531 14.1521L13.6902 18.715C13.5075 18.8978 13.2597 19.0004 13.0012 19.0004H6.53726C6.27884 19.0004 6.03101 18.8978 5.84828 18.715L1.28538 14.1521C1.10266 13.9694 1 13.7216 1 13.4632V6.99917C1 6.74076 1.10266 6.49292 1.28538 6.31019L5.84828 1.7473C6.03101 1.56457 6.27884 1.46191 6.53726 1.46191Z" stroke="#7E858C" stroke-width="2" stroke-miterlimit="10" stroke-linecap="round" stroke-linejoin="round"/>
<path d="M12.6924 8.28223L8.79497 12.1797L6.84625 10.2309" stroke="#7E858C" stroke-width="2" stroke-linecap="round" stroke-linejoin="round"/>
</svg>
