<svg width="100%" height="100%" viewBox="0 0 64 46" fill="none" xmlns="http://www.w3.org/2000/svg">
<path d="M4.28638 2.08731C4.57693 2.08731 4.82072 2.08731 5.0662 2.08731C8.5211 2.08731 11.9777 2.08731 15.4325 2.08731C16.5147 2.08731 17.5984 2.10233 18.6787 2.07228C18.8574 2.06726 19.1713 1.87691 19.183 1.74832C19.2382 1.17557 19.2064 0.596133 19.2064 0H4.28638V2.08731Z" fill="white"/>
<path d="M0.00154777 4.87918C0.367243 4.35651 0.866525 4.21123 1.49773 4.2129C14.7245 4.22793 27.9497 4.22292 41.1765 4.2246C42.3604 4.2246 42.6543 4.51682 42.6543 5.69572C42.6559 7.65111 42.6543 9.60482 42.6543 11.6287C42.9382 11.6437 43.177 11.6688 43.4157 11.6688C46.5601 11.6721 49.7061 11.6854 52.8504 11.6603C53.5967 11.6537 54.0827 11.9125 54.4902 12.5504C57.5092 17.2895 60.5651 22.0067 63.5825 26.7458C63.8229 27.1232 63.9765 27.6291 63.9799 28.075C64.0116 31.7202 63.9982 35.3654 63.9965 39.009C63.9965 40.1512 63.6575 40.4835 62.4953 40.4835C60.8522 40.4835 59.2091 40.4835 57.5443 40.4835C57.4291 40.8676 57.3372 41.2282 57.212 41.5739C56.2635 44.1972 53.732 45.9022 50.9751 45.7853C48.1197 45.665 45.7385 43.7731 45.0188 41.0262C44.922 40.6555 44.8201 40.4702 44.381 40.4719C36.7781 40.4869 29.177 40.4819 21.5742 40.4835C21.4924 40.4835 21.4106 40.4935 21.302 40.5018C20.3502 43.8383 18.2613 45.8738 14.6728 45.7519C11.3531 45.6383 9.43615 43.6395 8.5695 40.4835C6.22505 40.4835 3.87223 40.4669 1.5211 40.4935C0.858176 40.5018 0.343865 40.3316 -0.00012207 39.7488V4.87918H0.00154777ZM21.287 38.3077H40.4701V36.1987H22.4342V34.0763H40.4852V10.6051H4.29137V8.48602H40.4734V6.40708H2.17902V34.1165H7.43234V36.2338H2.1857V38.321H8.57786C9.81687 34.7476 11.9025 33.011 14.9283 33.0077C17.954 33.0059 20.023 34.7225 21.287 38.306V38.3077ZM61.8692 34.0746V33.4084C61.8692 31.9706 61.8675 30.5346 61.8692 29.0968C61.8725 27.5072 61.9643 27.6692 60.4732 27.6692C55.7442 27.6692 51.0169 27.6692 46.2878 27.6692C45.114 27.6692 44.7933 27.3536 44.7917 26.1963C44.7883 23.2808 44.79 20.3636 44.7917 17.4481C44.7917 16.2758 45.1107 15.9536 46.2678 15.9519C48.6223 15.9486 50.9751 15.9519 53.3295 15.9519C53.5483 15.9519 53.7671 15.9519 54.1128 15.9519C53.7003 15.304 53.343 14.7964 53.044 14.257C52.842 13.893 52.5832 13.7994 52.1858 13.8011C49.2485 13.8162 46.3113 13.8095 43.3756 13.8095C43.1736 13.8095 42.9699 13.8095 42.7412 13.8095V38.321H44.8435C45.6884 35.1433 47.6671 33.1296 51.0285 33.0544C54.5686 32.9743 56.6559 35.0131 57.561 38.3144H61.8174V36.1987H58.7098V34.0763H61.8692V34.0746ZM60.2194 25.5C60.1492 25.3598 60.1125 25.2679 60.0607 25.1878C58.613 22.9301 57.1719 20.6675 55.6974 18.4266C55.5738 18.238 55.2299 18.1043 54.9861 18.101C52.8219 18.0759 50.6579 18.0859 48.4937 18.0859C47.9978 18.0859 47.5018 18.0859 46.9725 18.0859V25.5H60.2194ZM51.2139 43.6629C53.5583 43.6562 55.4721 41.7443 55.4721 39.4082C55.4721 37.0821 53.5433 35.1467 51.2156 35.1367C48.8561 35.1283 46.9124 37.0804 46.9357 39.4366C46.9592 41.7943 48.8578 43.6679 51.2122 43.6612L51.2139 43.6629ZM14.9566 43.6629C17.3061 43.6496 19.2098 41.7376 19.203 39.4015C19.1963 37.0654 17.2744 35.1433 14.9433 35.1383C12.5922 35.1333 10.6318 37.1071 10.6635 39.4466C10.6952 41.7943 12.6122 43.6779 14.9566 43.6629Z" fill="white"/>
<path d="M0.000976562 0.00488281H2.08493V2.13059H0.000976562V0.00488281Z" fill="white"/>
<path d="M4.28638 2.08731V0H19.2064C19.2064 0.596133 19.2382 1.17557 19.183 1.74832C19.1713 1.87691 18.8574 2.06726 18.6787 2.07228C17.5967 2.10233 16.5147 2.08731 15.4325 2.08731C11.9777 2.08731 8.5211 2.08731 5.0662 2.08731C4.8224 2.08731 4.57693 2.08731 4.28638 2.08731Z" fill="white"/>
<path d="M50.1619 40.4468V38.4062H52.2141V40.4468H50.1619Z" fill="white"/>
<path d="M13.916 38.3867H15.9682V40.4373H13.916V38.3867Z" fill="white"/>
</svg>
