<svg width="100%" height="100%" viewBox="0 0 246 246" fill="none" xmlns="http://www.w3.org/2000/svg">
<circle cx="123" cy="123" r="123" fill="#97C2CF"/>
<path fill-rule="evenodd" clip-rule="evenodd" d="M173.913 134.868C169.589 134.868 166.08 138.41 166.08 142.775V158.589H79.9191V142.775C79.9191 138.41 76.41 134.868 72.0863 134.868C67.7625 134.868 64.2534 138.41 64.2534 142.775V170.45C64.2534 172.343 66.2939 174.403 68.1698 174.403H177.83C180.195 174.403 181.746 172.592 181.746 170.45V142.775C181.746 138.41 178.237 134.868 173.913 134.868ZM107.334 103.24H115.167V138.821C115.167 143.186 118.676 146.728 123 146.728C127.323 146.728 130.833 143.186 130.833 138.821V103.24H138.665C141.423 103.24 143.859 103.615 145.398 102.054C146.929 100.5 146.929 97.9735 145.398 96.4158L126.039 72.7304C125.216 71.9001 124.131 71.5442 123.062 71.6035C121.989 71.5442 120.904 71.9001 120.086 72.7304L100.727 96.4158C99.1917 97.9735 99.1917 100.5 100.727 102.054C102.262 103.615 105.799 103.24 107.334 103.24Z" fill="#73949E"/>
</svg>
