<svg width="100%" height="100%" viewBox="0 0 55 52" fill="none" xmlns="http://www.w3.org/2000/svg">
<path d="M0.00407226 14.5475C0.0936621 14.1505 0.168999 13.7514 0.274878 13.3605C1.29906 9.62619 3.66097 7.15432 7.4217 6.24824C11.1641 5.34624 14.3751 6.46815 16.9773 9.31059C17.0607 9.40221 17.1402 9.49588 17.2236 9.59157C19.4634 3.1859 23.8003 -0.413982 30.7049 0.038039C35.9825 0.382146 39.6129 3.38137 41.5412 8.3027C42.5938 10.9884 42.5796 13.7616 41.6918 16.5124C40.8122 19.2368 39.1487 21.393 36.7135 23.1421C37.2185 23.1421 37.5687 23.14 37.9209 23.1421C40.0996 23.1584 41.6613 24.7262 41.6755 26.915C41.6796 27.644 41.6755 28.3729 41.6755 29.1568C42.3821 29.1568 43.0398 29.1609 43.6954 29.1527C43.7728 29.1527 43.8603 29.11 43.9255 29.0611C44.3368 28.7557 44.7155 28.4034 45.1512 28.1408C46.9288 27.0718 48.7307 26.0436 50.5062 24.9705C51.5223 24.3576 52.5464 24.1947 53.5971 24.8076C54.6253 25.4062 55 26.351 54.9979 27.5198C54.9857 34.2512 54.9939 40.9827 54.9898 47.7141C54.9898 49.4815 53.6867 50.7642 52.0048 50.6258C51.5752 50.5912 51.1232 50.4344 50.7465 50.2185C48.6371 49.0091 46.4584 47.8892 44.4895 46.4782C43.5447 45.8022 42.6794 46.0302 41.6735 45.8938C41.6735 46.692 41.6735 47.4514 41.6735 48.213C41.6735 49.1659 41.3701 50.0048 40.7308 50.7133C40.0365 51.483 39.163 51.9167 38.1306 51.9208C34.0136 51.9391 29.8965 51.933 25.7795 51.9269C25.0811 51.9269 24.6107 51.4871 24.6005 50.8722C24.5904 50.2369 25.0729 49.7849 25.7998 49.7849C29.756 49.7808 33.7122 49.7849 37.6684 49.7828C38.9797 49.7828 39.5254 49.2371 39.5254 47.9279C39.5254 40.9989 39.5254 34.07 39.5254 27.1431C39.5254 25.8359 38.9777 25.2902 37.6644 25.2902C26.4412 25.2902 15.218 25.2902 3.99489 25.2902C2.68973 25.2902 2.14812 25.8379 2.14812 27.1553C2.14812 34.0659 2.14812 40.9765 2.14812 47.8872C2.14812 49.2616 2.67752 49.7828 4.07227 49.7828C7.90223 49.7828 11.7342 49.7828 15.5642 49.7828C15.7434 49.7828 15.9246 49.7726 16.1017 49.793C16.6535 49.8541 17.0628 50.298 17.075 50.8335C17.0872 51.3873 16.6698 51.8597 16.0956 51.9228C15.9185 51.9432 15.7373 51.9309 15.5581 51.9309C11.7281 51.9309 7.89612 51.9309 4.06616 51.9309C1.90582 51.9309 0.730971 51.0676 0.0692284 49.0009C0.0590478 48.9704 0.0244335 48.95 0 48.9236C0 41.3329 0 33.7401 0 26.1494C0.0325782 26.0904 0.0794091 26.0334 0.0977343 25.9682C0.527358 24.3922 1.56172 23.478 3.15194 23.1726C3.25985 23.1522 3.36573 23.1278 3.50419 23.0973C1.58411 21.2118 0.769658 19.9005 0.272841 17.8888C0.171035 17.4592 0.0936621 17.0215 0.00407226 16.5878C0.00407226 15.9077 0.00407226 15.2276 0.00407226 14.5475ZM52.8498 37.562C52.8498 34.2166 52.8498 30.8712 52.8498 27.5259C52.8498 26.6015 52.4222 26.3469 51.6404 26.8051C49.8689 27.8455 48.1016 28.8962 46.324 29.9265C46.0553 30.0812 45.9677 30.2563 45.9677 30.5617C45.9779 35.2123 45.9779 39.8648 45.9677 44.5153C45.9677 44.8208 46.0593 44.9938 46.3261 45.1486C48.0873 46.1707 49.8323 47.2214 51.6037 48.2313C51.8623 48.3799 52.2858 48.4756 52.5179 48.3616C52.7134 48.2659 52.8335 47.8302 52.8356 47.5451C52.8559 44.2181 52.8498 40.891 52.8498 37.562ZM19.1193 12.5827C19.1111 18.3897 23.8105 23.1258 29.5972 23.1421C35.4185 23.1584 40.1668 18.4305 40.1688 12.6173C40.1688 6.82447 35.4491 2.09453 29.6563 2.08639C23.8574 2.08028 19.1254 6.79189 19.1172 12.5827H19.1193ZM17.189 15.6023C17.1809 11.4689 13.8029 8.09909 9.66552 8.10113C5.5281 8.10316 2.15627 11.475 2.1522 15.6124C2.14812 19.7723 5.53828 23.1522 9.70217 23.1421C13.8314 23.1298 17.1972 19.7417 17.189 15.6023ZM43.8074 31.3477H41.704V43.7355H43.8074V31.3477ZM15.7943 23.0973H22.5257C20.9396 21.9896 19.7179 20.6702 18.7182 19.0413C18.0605 20.66 17.1259 21.9693 15.7943 23.0973Z" fill="white"/>
<path d="M16.2481 34.3145C19.2535 34.3145 22.2588 34.3145 25.2641 34.3145C26.2842 34.3145 26.6405 34.679 26.6405 35.7134C26.6405 38.9345 26.6405 42.1537 26.6405 45.3748C26.6405 46.4092 26.2801 46.7757 25.2662 46.7757C19.2372 46.7757 13.2102 46.7757 7.18124 46.7757C6.17743 46.7757 5.80481 46.4112 5.80481 45.4298C5.80481 42.174 5.80481 38.9182 5.80481 35.6625C5.80481 34.679 6.17539 34.3166 7.1792 34.3166C10.2028 34.3166 13.2245 34.3166 16.2481 34.3166V34.3145ZM7.97533 44.5889H24.4497V36.4912H7.97533V44.5889Z" fill="white"/>
<path d="M29.2184 42.2653C29.2184 41.4611 29.2143 40.6568 29.2184 39.8525C29.2245 39.034 29.6256 38.6186 30.4278 38.6145C32.0547 38.6064 33.6795 38.6064 35.3064 38.6145C36.1107 38.6186 36.5159 39.034 36.5199 39.8484C36.526 41.457 36.526 43.0655 36.5199 44.6741C36.5159 45.513 36.1066 45.912 35.2575 45.9141C33.6673 45.9202 32.0771 45.9202 30.4869 45.9141C29.6154 45.912 29.2245 45.5089 29.2204 44.6232C29.2163 43.8372 29.2204 43.0513 29.2204 42.2633L29.2184 42.2653ZM31.3868 43.7273H34.3474V40.7912H31.3868V43.7273Z" fill="white"/>
<path d="M36.5203 31.9689C36.5122 33.9725 34.8609 35.6095 32.8512 35.6014C30.8497 35.5932 29.2127 33.9399 29.2188 31.9323C29.2269 29.9287 30.8803 28.2937 32.8879 28.2998C34.8935 28.308 36.5265 29.9593 36.5183 31.9689H36.5203ZM32.8451 30.45C32.0266 30.4642 31.3567 31.1585 31.3689 31.975C31.3832 32.7936 32.0755 33.4655 32.894 33.4512C33.7125 33.437 34.3824 32.7447 34.3702 31.9262C34.3559 31.1076 33.6636 30.4357 32.8451 30.45Z" fill="white"/>
<path d="M20.8603 49.7863C21.4365 49.7965 21.915 50.2852 21.9109 50.8614C21.9069 51.458 21.3897 51.9528 20.7951 51.9263C20.2209 51.8998 19.7526 51.3969 19.771 50.8247C19.7893 50.2485 20.2841 49.7761 20.8582 49.7863H20.8603Z" fill="white"/>
<path d="M21.2693 12.5969C21.2734 7.98502 25.03 4.23242 29.6439 4.23242C34.2761 4.23242 38.0389 8.01556 38.0226 12.6519C38.0063 17.2535 34.2293 21 29.6154 20.9898C25.0097 20.9796 21.2672 17.2148 21.2693 12.5969ZM23.4174 12.605C23.4174 16.0217 26.2028 18.8295 29.6093 18.8417C33.0463 18.8539 35.8704 16.0481 35.8745 12.6172C35.8765 9.1843 33.0585 6.37444 29.6235 6.38054C26.213 6.38665 23.4194 9.19041 23.4174 12.605Z" fill="white"/>
<path d="M9.68128 10.6807C12.4036 10.6847 14.6189 12.9163 14.6087 15.6427C14.5985 18.3609 12.3567 20.5763 9.63241 20.56C6.9386 20.5437 4.73145 18.3223 4.73145 15.6223C4.73145 12.9 6.95694 10.6745 9.68128 10.6807ZM12.4626 15.6122C12.4585 14.0728 11.1921 12.8186 9.65073 12.8288C8.13381 12.839 6.88975 14.083 6.8816 15.5999C6.87346 17.1413 8.12771 18.4098 9.66703 18.4118C11.2063 18.4139 12.4667 17.1535 12.4646 15.6122H12.4626Z" fill="white"/>
<path d="M29.6643 16.6054C29.0697 16.6156 28.5953 16.1717 28.5749 15.5833C28.5546 14.9887 29.0534 14.4716 29.6459 14.4756C30.2161 14.4777 30.7088 14.9684 30.7129 15.5405C30.719 16.1229 30.2507 16.5973 29.6622 16.6075L29.6643 16.6054Z" fill="white"/>
<path d="M29.6662 8.61834C30.2547 8.62852 30.7209 9.10497 30.7148 9.68731C30.7067 10.2595 30.216 10.7482 29.6459 10.7502C29.0533 10.7502 28.5565 10.2351 28.5769 9.63844C28.5973 9.05203 29.0717 8.60816 29.6683 8.61834H29.6662Z" fill="white"/>
<path d="M33.637 12.6173C33.635 13.2098 33.1708 13.6781 32.5864 13.6822C32.0163 13.6863 31.5174 13.2037 31.5052 12.6315C31.491 12.0431 32.0061 11.53 32.5986 11.5402C33.185 11.5504 33.6411 12.0227 33.637 12.6153V12.6173Z" fill="white"/>
<path d="M25.6495 12.6131C25.6495 12.0206 26.1076 11.5503 26.692 11.5421C27.2682 11.534 27.7589 12.0064 27.7732 12.5846C27.7895 13.1812 27.2886 13.6902 26.692 13.6841C26.1076 13.678 25.6495 13.2056 25.6475 12.6131H25.6495Z" fill="white"/>
</svg>
