<svg width="203" height="45" viewBox="0 0 203 45" fill="none" xmlns="http://www.w3.org/2000/svg">
<g clip-path="url(#clip0_1590_70)">
<path d="M193.83 10.7118C190.899 10.7118 188.126 8.83991 188.126 5.19141H192.507C192.507 5.98456 193.074 6.49218 193.83 6.49218C194.586 6.49218 195.153 5.98456 195.153 5.19141H199.533C199.533 8.83991 196.76 10.7118 193.83 10.7118ZM197.327 35.014V26.0355C197.359 26.0355 197.895 21.8159 197.895 21.8159L197.737 21.7842L195.626 26.1624L190.269 35.014H184.943V12.5519H190.615V22.736C190.584 22.736 190.143 26.099 190.143 26.099L190.269 26.1307L192.128 22.1015L197.832 12.5519H203V35.014H197.327Z" fill="#292929"/>
<path d="M173.905 12.5508L181.877 35.0129H175.827L174.377 30.5077H168.421L167.035 35.0129H160.985L168.768 12.5508H173.905ZM169.682 25.4633H173.022L171.478 18.896H171.321L169.682 25.4633Z" fill="#292929"/>
<path d="M161.553 17.912H155.629V35.0124H149.926V17.912H144V12.5186H161.553V17.912Z" fill="#292929"/>
<path d="M130.931 17.8807V21.3707H139.975V26.2882H130.931V29.6512H140.763V35.0129H125.227V12.5508H140.763V17.8807H130.931Z" fill="#292929"/>
<path d="M110.32 17.9442L109.942 24.7654C109.658 29.9684 107.358 35.7426 100.078 35.0129V29.7146C104.679 29.9684 104.332 25.0508 104.679 20.0699L105.215 12.5508H120.12V35.0129H114.448V17.9442H110.32Z" fill="#292929"/>
<path d="M90.2649 12.5508L98.2373 35.0129H92.1872L90.7376 30.5077H84.7817L83.3951 35.0129H77.3447L85.1284 12.5508H90.2649ZM86.0423 25.4633H89.3825L87.8384 18.896H87.6809L86.0423 25.4633Z" fill="#292929"/>
<path d="M62.098 26.542V35.0129H56.4258V12.5508H62.098V21.0534H68.5266V12.5508H74.1989V35.0129H68.5266V26.542H62.098Z" fill="#292929"/>
<path d="M0.0345376 34.7314C0.561062 30.2949 4.29299 26.413 8.80858 26.3048C9.02627 26.2993 9.18001 26.5281 9.09021 26.7281C7.37867 30.5811 1.95561 33.2919 4.28619 38.0065C5.85216 41.4075 10.2508 42.339 13.0358 39.8474C14.5881 38.3475 16.1337 36.7203 18.2017 35.9984C18.4058 35.9273 18.6153 36.0929 18.6003 36.3094C17.705 48.5796 -0.906947 47.2057 0.0345376 34.7314Z" fill="url(#paint0_linear_1590_70)"/>
<path d="M0.0345376 34.7314C0.561062 30.2949 4.29299 26.413 8.80858 26.3048C9.02627 26.2993 9.18001 26.5281 9.09021 26.7281C7.37867 30.5811 1.95561 33.2919 4.28619 38.0065C5.85216 41.4075 10.2508 42.339 13.0358 39.8474C14.5881 38.3475 16.1337 36.7203 18.2017 35.9984C18.4058 35.9273 18.6153 36.0929 18.6003 36.3094C17.705 48.5796 -0.906947 47.2057 0.0345376 34.7314Z" fill="#78E1C2"/>
<path d="M10.248 0.0163831C14.6589 0.545104 18.4847 4.2982 18.622 8.83341C18.6289 9.05806 18.3935 9.2101 18.1908 9.11421C16.3119 8.22936 14.8684 6.94454 13.3949 5.49809C10.7242 2.64629 5.57323 3.47772 4.2127 7.22808C2.01137 12.2701 7.58137 14.185 9.02353 18.3408C9.09564 18.549 8.92285 18.7627 8.70381 18.7394C-3.5668 17.4683 -2.31375 -0.579455 10.248 0.0163831Z" fill="url(#paint1_linear_1590_70)"/>
<path d="M10.248 0.0163831C14.6589 0.545104 18.4847 4.2982 18.622 8.83341C18.6289 9.05806 18.3935 9.2101 18.1908 9.11421C16.3119 8.22936 14.8684 6.94454 13.3949 5.49809C10.7242 2.64629 5.57323 3.47772 4.2127 7.22808C2.01137 12.2701 7.58137 14.185 9.02353 18.3408C9.09564 18.549 8.92285 18.7627 8.70381 18.7394C-3.5668 17.4683 -2.31375 -0.579455 10.248 0.0163831Z" fill="#78E1C2"/>
<path d="M36.1143 0C43.1251 0.754729 47.0502 8.34037 43.2571 14.4042C41.6204 17.0478 39.0762 18.523 36.0218 18.7093C35.7905 18.723 35.6327 18.4778 35.7361 18.2696C36.0735 17.5821 36.366 16.9149 36.7905 16.3465C37.5551 15.3205 38.4259 14.37 39.3075 13.4413C44.2925 8.09792 37.3129 0.58762 31.7443 5.16941C30.9824 5.8488 30.2886 6.60354 29.5213 7.27471C28.66 8.0267 27.6818 8.58966 26.5444 9.0362C26.3349 9.11838 26.1104 8.94716 26.1335 8.72115C26.607 4.12567 29.6641 0.890334 34.1728 0.0739661L36.1157 0H36.1143Z" fill="url(#paint2_linear_1590_70)"/>
<path d="M36.1143 0C43.1251 0.754729 47.0502 8.34037 43.2571 14.4042C41.6204 17.0478 39.0762 18.523 36.0218 18.7093C35.7905 18.723 35.6327 18.4778 35.7361 18.2696C36.0735 17.5821 36.366 16.9149 36.7905 16.3465C37.5551 15.3205 38.4259 14.37 39.3075 13.4413C44.2925 8.09792 37.3129 0.58762 31.7443 5.16941C30.9824 5.8488 30.2886 6.60354 29.5213 7.27471C28.66 8.0267 27.6818 8.58966 26.5444 9.0362C26.3349 9.11838 26.1104 8.94716 26.1335 8.72115C26.607 4.12567 29.6641 0.890334 34.1728 0.0739661L36.1157 0H36.1143Z" fill="#78E1C2"/>
<path d="M37.735 35.8971C37.0438 36.593 36.4084 37.2313 35.671 37.9723C35.5119 38.1326 35.2534 38.1326 35.0928 37.9723C35.0589 37.9395 35.0276 37.908 35.0003 37.8833C33.6262 36.6026 32.3445 35.189 30.8371 34.0891C27.7324 31.8222 24.1936 31.0346 20.3828 31.5346C17.6957 31.8866 15.2659 32.892 13.1802 34.6192C11.9707 35.6205 10.8918 36.7806 9.76114 37.8778C9.73935 37.8983 9.71486 37.9231 9.69037 37.9476C9.52983 38.1065 9.27001 38.1052 9.11082 37.9449C8.3775 37.2053 7.7367 36.5574 7.05234 35.867C6.89317 35.7054 6.89181 35.4452 7.05234 35.2835C7.64553 34.6891 8.25369 34.0768 8.86457 33.4672C9.96386 32.3688 10.9408 31.1757 11.6863 29.8018C13.2686 26.8843 13.8604 23.7804 13.4182 20.4794C13.0536 17.7604 12.0359 15.3154 10.3217 13.1937C9.52583 12.2088 8.59654 11.3322 7.72036 10.4145C7.50404 10.1871 7.27684 9.96935 7.05779 9.76244C6.89045 9.60222 6.88636 9.33374 7.04963 9.16937C7.73806 8.47492 8.38023 7.82565 9.11355 7.08599C9.27409 6.92437 9.53532 6.923 9.69586 7.08599C9.71765 7.10791 9.73935 7.12846 9.75983 7.14763C11.1353 8.42834 12.4169 9.84054 13.923 10.9404C17.0277 13.2074 20.5665 13.9936 24.3773 13.495C27.0793 13.1417 29.5187 12.1239 31.6153 10.3844C32.8125 9.39129 33.8806 8.24069 34.999 7.15174C35.0221 7.12846 35.048 7.10381 35.0765 7.07641C35.2371 6.91888 35.4942 6.92163 35.652 7.08189C36.3853 7.82428 37.0248 8.47217 37.7105 9.16663C37.8697 9.3269 37.8697 9.58713 37.7105 9.74744C37.067 10.3912 36.4043 11.0528 35.7445 11.7184C34.4507 13.0238 33.3677 14.4798 32.6003 16.1633C31.1228 19.4096 30.8071 22.7655 31.663 26.2281C32.3405 28.9663 33.7337 31.2948 35.7105 33.2809C36.3853 33.9589 37.0588 34.6356 37.735 35.315C37.8955 35.4753 37.8955 35.7369 37.735 35.8985V35.8971Z" fill="url(#paint3_linear_1590_70)"/>
<path d="M37.735 35.8971C37.0438 36.593 36.4084 37.2313 35.671 37.9723C35.5119 38.1326 35.2534 38.1326 35.0928 37.9723C35.0589 37.9395 35.0276 37.908 35.0003 37.8833C33.6262 36.6026 32.3445 35.189 30.8371 34.0891C27.7324 31.8222 24.1936 31.0346 20.3828 31.5346C17.6957 31.8866 15.2659 32.892 13.1802 34.6192C11.9707 35.6205 10.8918 36.7806 9.76114 37.8778C9.73935 37.8983 9.71486 37.9231 9.69037 37.9476C9.52983 38.1065 9.27001 38.1052 9.11082 37.9449C8.3775 37.2053 7.7367 36.5574 7.05234 35.867C6.89317 35.7054 6.89181 35.4452 7.05234 35.2835C7.64553 34.6891 8.25369 34.0768 8.86457 33.4672C9.96386 32.3688 10.9408 31.1757 11.6863 29.8018C13.2686 26.8843 13.8604 23.7804 13.4182 20.4794C13.0536 17.7604 12.0359 15.3154 10.3217 13.1937C9.52583 12.2088 8.59654 11.3322 7.72036 10.4145C7.50404 10.1871 7.27684 9.96935 7.05779 9.76244C6.89045 9.60222 6.88636 9.33374 7.04963 9.16937C7.73806 8.47492 8.38023 7.82565 9.11355 7.08599C9.27409 6.92437 9.53532 6.923 9.69586 7.08599C9.71765 7.10791 9.73935 7.12846 9.75983 7.14763C11.1353 8.42834 12.4169 9.84054 13.923 10.9404C17.0277 13.2074 20.5665 13.9936 24.3773 13.495C27.0793 13.1417 29.5187 12.1239 31.6153 10.3844C32.8125 9.39129 33.8806 8.24069 34.999 7.15174C35.0221 7.12846 35.048 7.10381 35.0765 7.07641C35.2371 6.91888 35.4942 6.92163 35.652 7.08189C36.3853 7.82428 37.0248 8.47217 37.7105 9.16663C37.8697 9.3269 37.8697 9.58713 37.7105 9.74744C37.067 10.3912 36.4043 11.0528 35.7445 11.7184C34.4507 13.0238 33.3677 14.4798 32.6003 16.1633C31.1228 19.4096 30.8071 22.7655 31.663 26.2281C32.3405 28.9663 33.7337 31.2948 35.7105 33.2809C36.3853 33.9589 37.0588 34.6356 37.735 35.315C37.8955 35.4753 37.8955 35.7369 37.735 35.8985V35.8971Z" fill="#088B95"/>
<path d="M26.166 36.2807C26.1538 36.0602 26.3755 35.8999 26.5796 35.9807C27.6749 36.4108 28.6544 36.9971 29.5252 37.7573C30.2054 38.3517 30.8327 39.0051 31.4857 39.6311C34.5482 42.5651 39.4693 41.3542 40.7278 37.3313C41.3509 35.3396 40.9509 33.5083 39.5931 31.9222C39.0149 31.2469 38.3631 30.636 37.7605 29.9813C36.766 29.0882 36.0856 27.5239 35.8013 26.7678C35.7224 26.5583 35.8788 26.3308 36.102 26.3391C40.0121 26.487 44.31 29.7333 44.6992 34.9849C45.0951 40.3283 40.9223 44.9141 35.5605 44.9991C30.3538 45.0813 26.4273 40.9598 26.166 36.278V36.2807Z" fill="url(#paint4_linear_1590_70)"/>
<path d="M26.166 36.2807C26.1538 36.0602 26.3755 35.8999 26.5796 35.9807C27.6749 36.4108 28.6544 36.9971 29.5252 37.7573C30.2054 38.3517 30.8327 39.0051 31.4857 39.6311C34.5482 42.5651 39.4693 41.3542 40.7278 37.3313C41.3509 35.3396 40.9509 33.5083 39.5931 31.9222C39.0149 31.2469 38.3631 30.636 37.7605 29.9813C36.766 29.0882 36.0856 27.5239 35.8013 26.7678C35.7224 26.5583 35.8788 26.3308 36.102 26.3391C40.0121 26.487 44.31 29.7333 44.6992 34.9849C45.0951 40.3283 40.9223 44.9141 35.5605 44.9991C30.3538 45.0813 26.4273 40.9598 26.166 36.278V36.2807Z" fill="#78E1C2"/>
</g>
<defs>
<linearGradient id="paint0_linear_1590_70" x1="9.30053" y1="26.3047" x2="9.30053" y2="44.8325" gradientUnits="userSpaceOnUse">
<stop stop-color="#179655"/>
<stop offset="1" stop-color="#234093"/>
</linearGradient>
<linearGradient id="paint1_linear_1590_70" x1="9.37824" y1="0.00195317" x2="9.37824" y2="18.7411" gradientUnits="userSpaceOnUse">
<stop stop-color="#179655"/>
<stop offset="1" stop-color="#234093"/>
</linearGradient>
<linearGradient id="paint2_linear_1590_70" x1="35.4324" y1="0" x2="35.4324" y2="18.7099" gradientUnits="userSpaceOnUse">
<stop stop-color="#179655"/>
<stop offset="1" stop-color="#234093"/>
</linearGradient>
<linearGradient id="paint3_linear_1590_70" x1="22.3925" y1="6.95996" x2="22.3925" y2="38.0926" gradientUnits="userSpaceOnUse">
<stop stop-color="#179655"/>
<stop offset="1" stop-color="#234093"/>
</linearGradient>
<linearGradient id="paint4_linear_1590_70" x1="35.4453" y1="26.3389" x2="35.4453" y2="45.0003" gradientUnits="userSpaceOnUse">
<stop stop-color="#179655"/>
<stop offset="1" stop-color="#234093"/>
</linearGradient>
<clipPath id="clip0_1590_70">
<rect width="203" height="45" fill="white"/>
</clipPath>
</defs>
</svg>
